<?xml version="1.0" standalone="no"?>
<!DOCTYPE svg PUBLIC "-//W3C//DTD SVG 20010904//EN"
 "http://www.w3.org/TR/2001/REC-SVG-20010904/DTD/svg10.dtd">
<svg version="1.0" xmlns="http://www.w3.org/2000/svg"
 width="360.000000pt" height="412.000000pt" viewBox="0 0 360.000000 412.000000"
 preserveAspectRatio="xMidYMid meet">

<g transform="translate(0.000000,412.000000) scale(0.100000,-0.100000)"
fill="#000000" stroke="none">
<path d="M1739 3801 c-39 -39 -40 -96 -3 -140 25 -30 25 -51 -1 -51 -22 0 -28
-33 -8 -48 13 -10 14 -16 6 -19 -8 -3 -13 -22 -13 -48 l0 -43 -71 30 c-130 54
-206 49 -319 -22 -36 -22 -84 -50 -107 -61 -65 -30 -173 -27 -173 6 0 35 -78
47 -109 16 -14 -14 -22 -16 -31 -7 -17 16 -50 -28 -50 -68 0 -52 48 -101 63
-63 4 8 14 3 31 -16 27 -30 32 -52 16 -77 -8 -13 -11 -11 -16 7 -9 32 -32 36
-49 9 -17 -26 -12 -50 17 -83 20 -21 20 -21 -1 -42 -17 -17 -21 -34 -21 -83 0
-60 -17 -188 -25 -197 -3 -2 -11 2 -20 9 -35 29 -60 -15 -31 -56 14 -19 -6
-88 -217 -772 -222 -721 -233 -752 -259 -763 -39 -16 -36 -44 13 -115 55 -80
92 -118 167 -171 168 -121 416 -164 627 -108 151 41 308 144 389 258 75 105
77 126 14 142 -22 6 -31 16 -40 49 -7 22 -110 358 -228 746 l-216 705 19 26
c29 41 19 65 -26 61 l-37 -3 0 130 c0 121 -1 131 -21 145 l-22 15 22 27 c16
20 21 41 21 83 0 31 3 66 6 78 l6 21 46 -21 c73 -32 147 -27 267 18 139 52
236 48 328 -11 31 -20 37 -30 37 -59 0 -24 5 -35 15 -35 18 0 19 -12 4 -27 -8
-8 -7 -17 3 -32 11 -18 11 -23 -2 -31 -11 -7 -6 -10 20 -9 19 0 29 3 23 6 -28
11 -13 33 22 33 35 0 50 -22 23 -33 -7 -3 -2 -6 12 -6 24 -1 25 1 24 49 -2 28
2 50 7 50 5 0 9 15 9 34 0 43 32 70 108 92 87 26 144 21 257 -21 120 -45 194
-50 267 -18 l46 21 6 -21 c3 -12 6 -49 6 -81 0 -48 4 -64 22 -83 l22 -23 -22
-16 c-21 -14 -22 -23 -22 -146 l0 -130 -35 6 c-45 9 -56 -13 -30 -59 l17 -33
-212 -699 c-117 -384 -219 -719 -226 -744 -11 -37 -20 -48 -42 -54 -63 -16
-61 -37 14 -142 81 -114 238 -217 389 -258 211 -56 459 -13 627 108 75 53 112
91 167 171 49 71 52 99 13 115 -26 11 -37 43 -259 763 -211 684 -231 753 -217
772 29 41 4 85 -31 56 -9 -7 -18 -10 -21 -7 -9 9 -24 128 -24 195 0 49 -4 66
-21 83 -21 21 -21 21 -1 42 29 33 34 57 17 83 -17 27 -40 23 -49 -9 -5 -18 -8
-20 -16 -7 -16 25 -11 47 16 77 17 19 27 24 31 16 15 -38 63 11 63 63 0 39
-35 86 -49 65 -7 -11 -13 -9 -30 8 -32 32 -111 23 -111 -14 0 -35 -113 -36
-179 -2 -25 13 -78 43 -118 66 -112 67 -202 66 -337 -1 l-39 -20 6 75 c5 70 4
77 -16 90 l-22 15 22 21 c43 41 41 125 -4 161 -38 30 -88 26 -124 -9z m-89
-403 c54 -28 66 -38 68 -61 l3 -28 -46 35 c-98 76 -185 73 -357 -9 -88 -42
-153 -46 -229 -14 -27 12 -49 25 -49 30 0 4 16 1 35 -7 19 -7 61 -14 93 -14
49 0 74 7 152 46 51 25 110 49 129 54 58 15 131 3 201 -32z m620 -18 c89 -42
115 -50 163 -50 32 0 73 7 92 14 19 8 35 11 35 7 0 -5 -22 -18 -49 -30 -76
-32 -141 -28 -229 14 -177 84 -282 83 -375 -4 l-29 -26 4 30 c2 22 13 35 43
52 117 67 191 65 345 -7z m-1339 -607 c-6 -11 -6 -24 1 -36 6 -13 7 -261 2
-731 l-7 -713 -141 -7 c-78 -4 -190 -15 -251 -26 -60 -10 -111 -18 -112 -16
-8 8 458 1489 475 1511 11 14 24 40 29 58 l7 32 4 -27 c2 -15 -1 -35 -7 -45z
m1775 -24 c13 -14 478 -1499 471 -1505 -1 -2 -52 6 -112 16 -61 11 -174 22
-251 26 l-142 7 -7 651 c-4 358 -5 685 -2 726 3 41 6 80 6 85 1 6 -1 28 -4 50
l-5 40 15 -39 c8 -22 22 -47 31 -57z m-1456 -729 c121 -399 225 -738 230 -753
9 -27 8 -28 -18 -23 -84 18 -244 37 -361 43 l-134 6 7 716 c4 394 9 729 13
744 5 28 6 28 24 10 10 -11 106 -308 239 -743z m1376 -8 l7 -719 -134 -6
c-118 -6 -278 -25 -361 -43 -21 -4 -27 -2 -23 8 2 7 106 345 229 751 129 424
232 747 243 759 17 19 18 19 24 -6 4 -14 10 -349 15 -744z m-1401 -772 c89
-12 305 -61 305 -69 0 -4 -30 -20 -66 -35 l-67 -29 -66 18 c-36 10 -109 21
-161 24 -94 6 -94 6 -117 40 -18 26 -20 37 -12 47 13 16 83 18 184 4z m1333
-12 c2 -10 -6 -31 -18 -48 -20 -29 -25 -30 -93 -30 -39 0 -110 -10 -158 -21
l-88 -22 -65 29 c-36 16 -66 31 -66 35 0 7 212 56 295 68 33 5 89 8 125 7 53
-1 65 -4 68 -18z m-1711 -200 c15 -21 37 -178 26 -189 -25 -25 -123 117 -123
178 0 21 5 23 44 23 24 0 48 -6 53 -12z m1998 -25 c-14 -79 -94 -188 -118
-164 -11 11 10 170 25 189 6 6 31 12 55 12 l45 0 -7 -37z m-1720 -5 c-18 -81
-84 -184 -104 -162 -9 10 10 162 22 182 5 6 26 12 48 12 40 0 41 0 34 -32z
m1432 20 c12 -20 31 -172 22 -182 -20 -22 -86 81 -104 162 -7 32 -6 32 34 32
22 0 43 -6 48 -12z"/>
<path d="M1740 1984 l0 -1086 -30 -35 c-32 -36 -38 -61 -18 -81 20 -20 -8 -32
-72 -32 -70 -1 -194 -23 -243 -43 -22 -10 -45 -30 -58 -52 -12 -20 -29 -35
-40 -35 -35 0 -50 -41 -47 -131 3 -82 4 -84 36 -106 146 -98 604 -133 887 -68
63 15 152 44 198 65 26 13 27 16 27 91 0 90 -10 118 -51 141 -16 9 -29 26 -29
36 0 24 -26 47 -70 61 -48 15 -225 41 -282 41 -51 0 -66 11 -43 30 21 17 19
54 -5 75 -20 18 -20 31 -20 1117 l0 1098 -30 0 -30 0 0 -1085 c0 -958 -2
-1085 -15 -1085 -13 0 -15 127 -15 1085 l0 1085 -25 0 -25 0 0 -1086z m160
-1184 c0 -6 -38 -10 -95 -10 -57 0 -95 4 -95 10 0 6 38 10 95 10 57 0 95 -4
95 -10z m-122 -87 c-2 -22 -13 -33 -52 -51 -57 -28 -179 -42 -191 -22 -12 19
16 36 85 49 36 7 83 21 105 31 54 25 57 24 53 -7z m137 -8 c39 -13 84 -25 100
-25 40 0 57 -12 49 -35 -6 -15 -16 -17 -74 -12 -99 8 -180 47 -167 81 8 21 9
21 92 -9z m-595 -120 c11 -29 45 -48 141 -76 63 -18 107 -22 297 -26 237 -5
334 3 450 39 35 11 76 31 90 45 19 19 30 23 41 16 26 -17 23 -30 -13 -52 -161
-100 -600 -130 -894 -61 -97 23 -192 65 -192 86 0 11 54 54 68 54 1 0 7 -11
12 -25z m500 -20 c80 0 169 4 198 8 l53 8 -3 -38 c-3 -33 -7 -39 -33 -44 -40
-9 -399 -9 -455 -1 -44 7 -45 8 -48 46 l-3 39 73 -9 c40 -5 138 -9 218 -9z
m-120 -207 l0 -59 -47 3 -48 3 -3 49 c-4 68 -1 72 52 68 l46 -4 0 -60z m320
17 c0 -59 -18 -80 -63 -73 -19 3 -22 10 -25 60 -3 61 -1 63 66 67 20 1 22 -3
22 -54z m-160 -15 l0 -60 -45 0 -45 0 0 60 0 60 45 0 45 0 0 -60z"/>
</g>
</svg>
