<svg aria-hidden="true" style="position: absolute; width: 0; height: 0; overflow: hidden;" version="1.1" xmlns="http://www.w3.org/2000/svg" xmlns:xlink="http://www.w3.org/1999/xlink">
<defs>
<symbol id="icon-law" viewBox="0 0 32 32">
<path fill="#707487" style="fill: var(--color1, #707487)" d="M26.483 32h-20.965c-0.305 0-0.552-0.247-0.552-0.552v-30.345c0-0.305 0.247-0.552 0.552-0.552h20.965c0.305 0 0.552 0.247 0.552 0.552v30.345c0 0.305-0.247 0.552-0.552 0.552z"></path>
<path fill="#5b5d6e" style="fill: var(--color2, #5b5d6e)" d="M7.724 30.897v0c-0.305 0-0.552-0.247-0.552-0.552v-28.138c0-0.305 0.247-0.552 0.552-0.552v0c0.305 0 0.552 0.247 0.552 0.552v28.138c0 0.305-0.247 0.552-0.552 0.552z"></path>
<path fill="#ffd782" style="fill: var(--color3, #ffd782)" d="M12.261 6.335l-1.226-0.817-1.226 0.817c-0.183 0.122-0.429-0.009-0.429-0.229v-5.553c0-0.305 0.247-0.552 0.552-0.552h2.207c0.305 0 0.552 0.247 0.552 0.552v5.553c-0 0.22-0.246 0.352-0.429 0.229z"></path>
<path fill="#ffc36e" style="fill: var(--color4, #ffc36e)" d="M18.207 21.517h-1.103v-11.586c0-0.305 0.247-0.552 0.552-0.552v0c0.305 0 0.552 0.247 0.552 0.552v11.586z"></path>
<path fill="#ffc36e" style="fill: var(--color4, #ffc36e)" d="M20.414 23.172h-5.517c-0.305 0-0.552-0.247-0.552-0.552v0c0-0.305 0.247-0.552 0.552-0.552h5.517c0.305 0 0.552 0.247 0.552 0.552v0c-0 0.305-0.247 0.552-0.552 0.552z"></path>
<path fill="#ffd782" style="fill: var(--color3, #ffd782)" d="M17.103 20.965l-1.655 1.103h4.414l-1.655-1.103z"></path>
<path fill="#f5b464" style="fill: var(--color5, #f5b464)" d="M22.644 11.585c0.294-0.012 0.529-0.254 0.529-0.551 0-0.305-0.247-0.552-0.552-0.552h-9.931c-0.305 0-0.552 0.247-0.552 0.552 0 0.297 0.235 0.538 0.528 0.551l-2.037 6.622h1.154l1.46-4.745 1.46 4.745h1.154l-2.037-6.621h7.67l-2.037 6.621h1.154l1.46-4.745 1.46 4.745h1.154l-2.038-6.622z"></path>
<path fill="#ffd782" style="fill: var(--color3, #ffd782)" d="M10.838 17.655c-0.257 0-0.433 0.271-0.321 0.501 0.492 1.009 1.527 1.706 2.726 1.706s2.233-0.696 2.726-1.706c0.112-0.231-0.064-0.501-0.321-0.501h-4.81z"></path>
<path fill="#ffd782" style="fill: var(--color3, #ffd782)" d="M19.662 17.655c-0.257 0-0.433 0.271-0.321 0.501 0.492 1.010 1.527 1.706 2.726 1.706s2.233-0.696 2.726-1.706c0.113-0.231-0.064-0.501-0.321-0.501h-4.81z"></path>
</symbol>
<symbol id="icon-photo" viewBox="0 0 32 32">
<path fill="#dfb76a" style="fill: var(--color6, #dfb76a)" d="M16.54 3.778c-0.297-0.011-0.593 0-0.889 0.032 0.148 0.021 0.296 0.042 0.444 0.063-0.072 0.047-0.072 0.1 0 0.159 0.114 0.043 0.22 0.085 0.317 0.127-1.027-0.041-2.043 0.043-3.048 0.254-0.109-0.070-0.173-0.176-0.19-0.317 0.131-0.081 0.279-0.134 0.444-0.159 0.976-0.205 1.949-0.257 2.921-0.159z"></path>
<path fill="#c3964b" style="fill: var(--color7, #c3964b)" d="M16.54 3.778c0.756 0.018 1.497 0.124 2.222 0.317 0.072 0.083 0.157 0.157 0.254 0.222-0.068 0.054-0.131 0.107-0.19 0.159-0.796-0.161-1.6-0.267-2.413-0.317-0.098-0.042-0.204-0.084-0.317-0.127-0.072-0.059-0.072-0.112 0-0.159-0.148-0.021-0.296-0.042-0.444-0.063 0.296-0.032 0.592-0.042 0.889-0.032z"></path>
<path fill="#fbfaf8" style="fill: var(--color8, #fbfaf8)" d="M16.413 4.159c0.813 0.050 1.617 0.156 2.413 0.317 0.99 0.281 1.943 0.662 2.857 1.143 0.751 0.413 1.449 0.899 2.095 1.46 0.316 0.295 0.633 0.591 0.952 0.889 0.467 0.595 0.912 1.209 1.333 1.841 0.567 0.944 1.012 1.938 1.333 2.984 0.604 2.535 0.477 5.032-0.381 7.492-0.295 0.59-0.591 1.183-0.889 1.778-0.252 0.358-0.506 0.718-0.762 1.079-0.213 0.276-0.425 0.551-0.635 0.825-0.233 0.19-0.444 0.402-0.635 0.635-1.035 0.899-2.178 1.64-3.429 2.222-0.201 0.1-0.412 0.164-0.635 0.19-0.122-0.207-0.271-0.398-0.444-0.571 0.033-0.044 0.076-0.076 0.127-0.095-0.358-0.116-0.655-0.317-0.889-0.603 0.395 0.178 0.808 0.284 1.238 0.317 0.4 0.019 0.771-0.076 1.111-0.286-0.334-0.057-0.652-0.163-0.952-0.317-0.299-0.030-0.596-0.030-0.889 0 0.389-0.167 0.686-0.432 0.889-0.794 0.027 0.077 0.070 0.14 0.127 0.19-0.082 0.153-0.188 0.29-0.317 0.413 0.392 0.074 0.783 0.148 1.175 0.222 0.502-0.022 0.936-0.202 1.302-0.54-0.408-0.015-0.81-0.067-1.206-0.159-0.291 0.044-0.566 0.119-0.825 0.222 0.683-0.372 1.022-0.933 1.016-1.683 0.020-0.062 0.062-0.104 0.127-0.127 0.043 0.070 0.085 0.133 0.127 0.19-0.061 0.435-0.209 0.837-0.444 1.206 0.908 0.249 1.691 0.048 2.349-0.603-0.402-0.042-0.804-0.042-1.206 0-0.263 0.111-0.517 0.217-0.762 0.317 0.205-0.194 0.396-0.395 0.571-0.603 0 0.085 0.042 0.127 0.127 0.127 0.004 0.034 0.025 0.056 0.064 0.064 0.403-0.068 0.805-0.132 1.206-0.19 0.427-0.131 0.766-0.385 1.016-0.762-0.021-0.021-0.042-0.042-0.064-0.064-0.411 0.081-0.813 0.166-1.206 0.254-0.198 0.099-0.389 0.194-0.571 0.286 0.143-0.174 0.27-0.354 0.381-0.54 0 0.085 0.042 0.127 0.127 0.127 0.304-0.132 0.622-0.217 0.952-0.254 0.617-0.112 0.998-0.45 1.143-1.016-0.348 0.106-0.686 0.212-1.016 0.317-0.070 0.004-0.134 0.025-0.19 0.064-0.071-0.073-0.071-0.137 0-0.19 0.004 0.034 0.025 0.056 0.064 0.064 0.195-0.14 0.407-0.246 0.635-0.317 0.677-0.19 1.080-0.613 1.206-1.27-0.396 0.167-0.777 0.357-1.143 0.571-0.059-0.269-0.081-0.544-0.064-0.825 0.052 0.221 0.084 0.454 0.095 0.698 0.259-0.186 0.523-0.355 0.794-0.508 0.487-0.255 0.783-0.657 0.889-1.206-0.032-0.065-0.074-0.075-0.127-0.032-0.322 0.224-0.639 0.446-0.952 0.667-0.198 0.141-0.336 0.332-0.413 0.571 0.080-0.395 0.102-0.797 0.064-1.206-0.092-0.291-0.23-0.545-0.413-0.762 0.083-0.061 0.125-0.146 0.127-0.254 0.298 0.46 0.478 0.968 0.54 1.524 0.129-0.14 0.267-0.267 0.413-0.381 0.639-0.369 0.967-0.919 0.984-1.651-0.351 0.281-0.689 0.578-1.016 0.889-0.050 0.079-0.082 0.164-0.095 0.254-0.052 0.12-0.105 0.247-0.159 0.381 0.028-0.336 0.028-0.675 0-1.016-0.12-0.32-0.279-0.616-0.476-0.889 0.085 0 0.127-0.042 0.127-0.127 0.239 0.288 0.43 0.605 0.571 0.952-0.010 0.087 0.001 0.172 0.032 0.254 0.212-0.296 0.466-0.55 0.762-0.762 0.35-0.404 0.477-0.869 0.381-1.397-0.212 0.296-0.466 0.55-0.762 0.762-0.141 0.239-0.247 0.493-0.317 0.762-0.011-0.266-0.043-0.52-0.095-0.762-0.139-0.405-0.372-0.744-0.698-1.016 0.022-0.053 0.064-0.074 0.127-0.063 0.306 0.264 0.539 0.581 0.698 0.952 0.037 0.080 0.069 0.165 0.095 0.254 0.217-0.329 0.45-0.646 0.698-0.952 0.212-0.442 0.275-0.908 0.19-1.397-0.279 0.342-0.533 0.702-0.762 1.079-0.056 0.209-0.098 0.42-0.127 0.635-0.012-0.161-0.044-0.309-0.095-0.444-0.038-0.203-0.112-0.393-0.222-0.571-0.172-0.161-0.33-0.33-0.476-0.508 0-0.042 0.021-0.063 0.064-0.063 0.254 0.127 0.444 0.317 0.571 0.571 0.047 0.115 0.11 0.22 0.19 0.317 0.235-0.415 0.457-0.838 0.667-1.27 0.042-0.317 0.042-0.635 0-0.952-0.016-0.071-0.048-0.135-0.095-0.19-0.14 0.32-0.32 0.616-0.54 0.889-0.060 0.346-0.113 0.685-0.159 1.016 0.004-0.415-0.134-0.775-0.413-1.079-0.201-0.159-0.402-0.317-0.603-0.476-0.084-0.034-0.126-0.002-0.127 0.095-0.040-0.026-0.061-0.069-0.064-0.127 0.016-0.077 0.058-0.119 0.127-0.127 0.291 0.144 0.545 0.334 0.762 0.571 0.084 0.125 0.169 0.252 0.254 0.381 0.158-0.401 0.317-0.804 0.476-1.206 0.083-0.468 0.020-0.912-0.19-1.333-0.078 0.319-0.205 0.615-0.381 0.889-0.051 0.306-0.104 0.602-0.159 0.889-0.072-0.359-0.263-0.645-0.571-0.857-0.247-0.155-0.501-0.293-0.762-0.413-0.039-0.057-0.060-0.12-0.064-0.19 0.424 0.198 0.827 0.43 1.206 0.698 0.040 0.072 0.092 0.135 0.159 0.19 0.053-0.348 0.137-0.686 0.254-1.016 0.119-0.553-0.008-1.040-0.381-1.46-0.044 0.259-0.107 0.513-0.19 0.762-0.059 0.379-0.027 0.75 0.095 1.111-0.004 0.049-0.026 0.080-0.064 0.095-0.057-0.184-0.142-0.353-0.254-0.508 0.021-0.042 0.042-0.085 0.064-0.127 0.042-0.592 0.053-1.185 0.032-1.778-0.101-0.265-0.249-0.498-0.444-0.698-0.037 0.275-0.069 0.55-0.095 0.825-0.052 0.157-0.084 0.326-0.095 0.508-0.032-0.274-0.042-0.549-0.032-0.825 0.068-0.557-0.101-1.022-0.508-1.397-0.004-0.034-0.025-0.056-0.064-0.063-0.063 0.207-0.084 0.419-0.064 0.635 0.006 0.384 0.080 0.743 0.222 1.079-0.134-0.166-0.292-0.293-0.476-0.381-0.085-0.063-0.169-0.127-0.254-0.19 0.064 0 0.127 0 0.19 0 0.069 0.002 0.132 0.024 0.19 0.063 0.021-0.042 0.042-0.085 0.064-0.127-0.038-0.404-0.091-0.806-0.159-1.206-0.145-0.282-0.346-0.515-0.603-0.698-0.030 0.164-0.094 0.312-0.19 0.444-0.073-0.525-0.337-0.927-0.794-1.206 0.044 0.485 0.15 0.951 0.317 1.397-0.465-0.274-0.941-0.316-1.429-0.127-0.057-0.045-0.079-0.108-0.064-0.19 0.408-0.005 0.81 0.005 1.206 0.032-0.156-0.334-0.272-0.684-0.349-1.048-0.18-0.265-0.402-0.487-0.667-0.667-0.053-0.044-0.095-0.033-0.127 0.032 0.132 0.237 0.206 0.491 0.222 0.762 0.099 0.208 0.237 0.388 0.413 0.54-0.142-0.044-0.291-0.097-0.444-0.159 0-0.042-0.021-0.064-0.064-0.064-0.049-0.733-0.387-1.283-1.016-1.651-0.021 0.021-0.042 0.042-0.064 0.064 0.061 0.1 0.103 0.206 0.127 0.317 0.013 0.156-0.008 0.304-0.064 0.444-0.382-0.383-0.805-0.468-1.27-0.254-0.062 0.241-0.084 0.495-0.064 0.762-0.042 0-0.064-0.021-0.064-0.064 0.011-0.318-0-0.636-0.032-0.952-0.1-0.082-0.174-0.061-0.222 0.064-0.062 0.198-0.083 0.41-0.064 0.635-0.112 0.122-0.197 0.27-0.254 0.444-0.053 0.022-0.074 0.064-0.064 0.127 0.011 0.382-0 0.762-0.032 1.143-0.113 0.205-0.209 0.417-0.286 0.635-0.227-0.050-0.439-0.135-0.635-0.254-0.234-0.19-0.488-0.36-0.762-0.508-0.037 0.013-0.069 0.034-0.095 0.063-0.007 0.102 0.024 0.197 0.095 0.286-0.156 0.174-0.209 0.376-0.159 0.603 0.151 0.087 0.289 0.066 0.413-0.063 0.021 0.032 0.042 0.063 0.064 0.095-0.051 0.145-0.135 0.262-0.254 0.349-0.148 0-0.296 0-0.444 0 0.005-0.138 0.048-0.265 0.127-0.381-0.116-0.068-0.19-0.026-0.222 0.127-0.081 0.3 0.035 0.459 0.349 0.476-0.103 0.514-0.187 1.032-0.254 1.556 0.004 0.093-0.017 0.177-0.063 0.254-0.249 0.121-0.481 0.27-0.698 0.444-0.11 0.033-0.195 0.097-0.254 0.19-0.123 0.039-0.229 0.102-0.317 0.19-0.158 0.069-0.307 0.153-0.444 0.254-0.325 0.173-0.664 0.236-1.016 0.19-0.098-0.151-0.14-0.321-0.127-0.508 0-0.106 0-0.212 0-0.317-0.127 0-0.254 0-0.381 0 0.177-0.062 0.367-0.083 0.571-0.063 0.417 0.068 0.554-0.101 0.413-0.508-0.057 0.077-0.11 0.077-0.159 0 0.052-0.056 0.116-0.077 0.19-0.063 0.019-0.196-0.065-0.302-0.254-0.317-0.011-0.209 0.031-0.231 0.127-0.063 0.091-0.030 0.175-0.073 0.254-0.127-0.17-0.333-0.403-0.397-0.698-0.19-0.105 0.010-0.19 0.052-0.254 0.127-0.187 0.051-0.356 0.136-0.508 0.254-0.127 0.085-0.254 0.169-0.381 0.254-0.021 0-0.042 0-0.063 0 0.129-0.171 0.277-0.319 0.444-0.444 0.339-0.254 0.72-0.402 1.143-0.444 0-0.063 0-0.127 0-0.19-0.494 0.004-0.896 0.194-1.206 0.571-0.070 0.083-0.155 0.114-0.254 0.095 0.205-0.216 0.417-0.417 0.635-0.603 0.047 0.008 0.089-0.002 0.127-0.032-0.058-0.018-0.1-0.049-0.127-0.095 0.021 0 0.042 0 0.063 0 0.28-0.142 0.471-0.354 0.571-0.635 0.070 0.070 0.112 0.155 0.127 0.254 0.094-0.352-0.054-0.521-0.444-0.508-0.171 0.033-0.34 0.043-0.508 0.032 0.063-0.021 0.127-0.042 0.19-0.063-0.174-0.102-0.365-0.155-0.571-0.159-0.042 0-0.085 0-0.127 0-0.164-0.023-0.312-0.023-0.444 0-0.085 0.021-0.169 0.042-0.254 0.063-0.189 0.083-0.337 0.21-0.444 0.381-0.070 0.070-0.112 0.155-0.127 0.254-0.045 0.166-0.087 0.357-0.127 0.571 0.001 0.098 0.022 0.183 0.063 0.254 0.069-0.117 0.154-0.223 0.254-0.317-0.088 0.178-0.13 0.369-0.127 0.571-0.012 0.172 0.031 0.32 0.127 0.444 0.117 0.145 0.138 0.294 0.063 0.444-0.042 0-0.063-0.021-0.063-0.063 0.079-0.097 0.047-0.16-0.095-0.19-0.083 0.009-0.136 0.051-0.159 0.127 0 0.063 0 0.127 0 0.19 0.029 0.061 0.071 0.114 0.127 0.159-0.058 0.018-0.1 0.049-0.127 0.095-0.042 0-0.063 0.021-0.063 0.063-0.088 0.126-0.067 0.243 0.063 0.349 0.12 0.050 0.226 0.039 0.317-0.032 0.021 0 0.042 0 0.063 0 0.157 0.071 0.306 0.071 0.444 0 0.077-0.027 0.14-0.070 0.19-0.127 0.094-0.141 0.179-0.289 0.254-0.444 0.089 0.583-0.122 1.007-0.635 1.27 0.249 0.312 0.567 0.524 0.952 0.635 0.164 0.125 0.355 0.189 0.571 0.19 0.068 0.059 0.152 0.081 0.254 0.063 0 0.021 0 0.042 0 0.063s0 0.042 0 0.063c-0.261-0.037-0.514-0.101-0.762-0.19-0.314-0.115-0.611-0.263-0.889-0.444-0.067-0.143-0.173-0.217-0.317-0.222 0.078 0.106 0.163 0.201 0.254 0.286 0.249 0.248 0.545 0.417 0.889 0.508 0.228 0.139 0.482 0.203 0.762 0.19 0.112 0.061 0.239 0.082 0.381 0.063 0 0.021 0 0.042 0 0.063s0 0.042 0 0.063c-0.169 0-0.339 0-0.508 0-0.045-0.057-0.108-0.079-0.19-0.063-0.192-0.013-0.382-0.034-0.571-0.063-0.122-0.063-0.249-0.126-0.381-0.19-0.376-0.206-0.693-0.481-0.952-0.825-0.177 0.057-0.346 0.131-0.508 0.222 0.359 0.063 0.603 0.264 0.73 0.603 0.049 0.465 0.092 0.931 0.127 1.397 0.064 0.223 0.202 0.371 0.413 0.444 0.022 0.053 0.064 0.074 0.127 0.064 0.224 0.077 0.457 0.077 0.698 0 0.145-0.030 0.272-0.094 0.381-0.19 0.125-0.122 0.221-0.271 0.286-0.444 0.047 0.208 0.005 0.399-0.127 0.571-0.167 0.152-0.347 0.279-0.54 0.381-0.338 0.034-0.677 0.065-1.016 0.095 0.029 0.026 0.050 0.058 0.063 0.095 0.23 0.052 0.463 0.084 0.698 0.095-0.188 0.080-0.379 0.154-0.571 0.222 0.356 0.009 0.694-0.076 1.016-0.254 0.188-0.163 0.347-0.353 0.476-0.571 0.025 0.014 0.036 0.036 0.032 0.064 0 0.042 0 0.085 0 0.127-0.236 0.384-0.553 0.68-0.952 0.889-0.127 0.021-0.254 0.042-0.381 0.064-0.020 0.216 0.001 0.427 0.063 0.635 0.13-0.071 0.215-0.176 0.254-0.317 0.051 0.096 0.062 0.202 0.032 0.317 0.261-0.261 0.473-0.557 0.635-0.889-0.049 0.331-0.186 0.627-0.413 0.889 0.052 0.056 0.116 0.077 0.19 0.064 0.032 0.086 0.096 0.15 0.19 0.19-0.029 0.051-0.071 0.072-0.127 0.064-0.047-0.008-0.089 0.002-0.127 0.032 0.383 0.287 0.806 0.488 1.27 0.603 0.171 0.010 0.34-0 0.508-0.032 0.058-0.018 0.1-0.049 0.127-0.095 0.042 0 0.063 0.021 0.063 0.064-0.012 0.18-0.096 0.307-0.254 0.381-0.171 0.010-0.34-0-0.508-0.032-0.277-0.138-0.552-0.276-0.825-0.413-0.069-0.13-0.174-0.214-0.317-0.254-0.171-0.283-0.425-0.41-0.762-0.381-0.072 0.378-0.199 0.737-0.381 1.079 0.011 0.021 0.021 0.042 0.032 0.064 0.127-0.127 0.254-0.254 0.381-0.381 0.029 0.038 0.040 0.080 0.032 0.127-0.362 0.394-0.637 0.849-0.825 1.365 0.049 0.113 0.123 0.208 0.222 0.286 0.126-0.316 0.327-0.57 0.603-0.762-0.147 0.244-0.284 0.498-0.413 0.762-0.063 0.154-0.020 0.26 0.127 0.317 0.136-0.136 0.274-0.274 0.413-0.413 0.091-0.037 0.175-0.026 0.254 0.032 0.042 0 0.063 0.021 0.063 0.064 0.144 0.039 0.25 0.123 0.317 0.254 0 0.085 0 0.169 0 0.254-0.224-0.010-0.404 0.075-0.54 0.254-0.048 0.072-0.037 0.136 0.032 0.19 0.423 0.233 0.847 0.466 1.27 0.698 0.021-0.032 0.042-0.064 0.063-0.095-0.199-0.534-0.358-1.074-0.476-1.619 0.224 0.406 0.446 0.808 0.667 1.206 0.115 0.314 0.263 0.611 0.444 0.889-0.063-0.011-0.105 0.010-0.127 0.064-0.106-0.042-0.212-0.085-0.317-0.127-0.089-0.088-0.195-0.152-0.317-0.19-0.146-0.137-0.315-0.243-0.508-0.317-0.138-0.101-0.286-0.185-0.444-0.254-0.094-0.079-0.199-0.142-0.317-0.19-0.062 0.186-0.084 0.376-0.063 0.571-0.213 0.018-0.403 0.092-0.571 0.222 0.226 0.152 0.458 0.29 0.698 0.413 0.231 0.179 0.485 0.327 0.762 0.444 0.064 0.075 0.149 0.117 0.254 0.127 0.074 0.111 0.179 0.175 0.317 0.19 0.188 0.158 0.4 0.285 0.635 0.381 0.318 0.222 0.656 0.413 1.016 0.571 0.262 0.184 0.537 0.354 0.825 0.508 0.182 0.123 0.372 0.229 0.571 0.317 0.008 0.047-0.002 0.089-0.032 0.127-0.115 0.094-0.231 0.178-0.349 0.254-0.207-0.061-0.397-0.156-0.571-0.286-0.398-0.534-0.927-0.788-1.587-0.762 0.247 0.305 0.522 0.58 0.825 0.825 0.259 0.134 0.534 0.218 0.825 0.254-0.259 0.015-0.513 0.057-0.762 0.127-0.339 0.212-0.677 0.423-1.016 0.635 0.552 0.166 1.081 0.103 1.587-0.19 0.169-0.127 0.339-0.254 0.508-0.381 0.112-0.041 0.218-0.030 0.317 0.032 0.218 0.143 0.43 0.302 0.635 0.476 0.457 0.184 0.923 0.205 1.397 0.064-0.292-0.134-0.546-0.314-0.762-0.54 0.805 0.402 1.651 0.677 2.54 0.825-0.007 0.039-0.028 0.071-0.064 0.095-0.371 0.108-0.731 0.224-1.079 0.349-0.797 0.161-1.601 0.267-2.413 0.317-0.96 0.026-1.913-0.037-2.857-0.19-0.438-0.125-0.883-0.252-1.333-0.381-0.562-0.196-1.112-0.429-1.651-0.698-0.497-0.28-0.984-0.577-1.46-0.889-1.212-0.873-2.228-1.931-3.048-3.175-0.448-0.726-0.829-1.488-1.143-2.286-0.135-0.378-0.262-0.759-0.381-1.143-0.074-0.404-0.159-0.806-0.254-1.206-0.139-1.183-0.16-2.368-0.064-3.556 0.174-0.906 0.428-1.795 0.762-2.667 0.173-0.41 0.364-0.812 0.571-1.206 0.993-1.796 2.348-3.257 4.064-4.381 0.394-0.25 0.796-0.483 1.206-0.698 0.421-0.183 0.844-0.352 1.27-0.508 0.423-0.148 0.847-0.275 1.27-0.381 1.004-0.21 2.020-0.295 3.048-0.254z"></path>
<path fill="#c8a35c" style="fill: var(--color9, #c8a35c)" d="M13.175 4.095c0.018 0.141 0.081 0.247 0.19 0.317-0.423 0.106-0.846 0.233-1.27 0.381-0.027-0.046-0.069-0.078-0.127-0.095 0.042-0.021 0.085-0.042 0.127-0.064-0.078-0.069-0.163-0.122-0.254-0.159 0.417-0.202 0.861-0.329 1.333-0.381z"></path>
<path fill="#a68246" style="fill: var(--color10, #a68246)" d="M11.841 4.476c0.091 0.037 0.175 0.090 0.254 0.159-0.042 0.021-0.085 0.042-0.127 0.064 0.058 0.018 0.1 0.049 0.127 0.095-0.425 0.156-0.849 0.325-1.27 0.508-0.043-0.086-0.043-0.16 0-0.222-0.104-0.031-0.21-0.042-0.317-0.032 0.419-0.241 0.863-0.431 1.333-0.571z"></path>
<path fill="#b98a45" style="fill: var(--color11, #b98a45)" d="M15.905 4.794c0.056-0.008 0.098 0.013 0.127 0.064 0.042 0.106 0.085 0.212 0.127 0.317 0.433 0.005 0.507 0.131 0.222 0.381-0.013 0.18-0.024 0.349-0.032 0.508-0.254-0.254-0.508-0.254-0.762 0-0.021-0.021-0.042-0.042-0.063-0.064 0.119-0.283 0.055-0.516-0.19-0.698 0.321-0.030 0.512-0.199 0.571-0.508z"></path>
<path fill="#b88a45" style="fill: var(--color12, #b88a45)" d="M14.127 5.302c0.093 0.058 0.156 0.142 0.19 0.254 0.398 0.002 0.451 0.108 0.159 0.317 0.014 0.133 0.003 0.259-0.032 0.381-0.19-0.169-0.381-0.169-0.571 0-0.035-0.121-0.046-0.248-0.032-0.381-0.074-0.074-0.148-0.148-0.222-0.222 0.251-0.008 0.42-0.125 0.508-0.349z"></path>
<path fill="#b78842" style="fill: var(--color13, #b78842)" d="M17.746 5.302c0.093 0.058 0.157 0.142 0.19 0.254 0.398 0.002 0.451 0.108 0.159 0.317-0.005 0.137-0.016 0.264-0.032 0.381-0.091-0.051-0.187-0.093-0.286-0.127-0.114 0.064-0.231 0.095-0.349 0.095 0.112-0.243 0.048-0.434-0.19-0.571 0.268 0.015 0.437-0.102 0.508-0.349z"></path>
<path fill="#fdfdfc" style="fill: var(--color14, #fdfdfc)" d="M18.825 6.381c0.368 0.41 0.834 0.558 1.397 0.444-0.19 0.042-0.381 0.085-0.571 0.127-0.156 0.013-0.304 0.055-0.444 0.127 0.31 0.271 0.67 0.377 1.079 0.317 0.183-0.019 0.352 0.002 0.508 0.064-0.248-0.015-0.481 0.038-0.698 0.159 0.242 0.206 0.517 0.343 0.825 0.413-0.015 0.082 0.006 0.145 0.064 0.19 0.455 0.386 0.985 0.556 1.587 0.508-0.27 0.038-0.503 0.081-0.698 0.127 0.2 0.301 0.475 0.491 0.825 0.571 0.309 0.034 0.606 0.118 0.889 0.254-0.064 0-0.127 0-0.19 0-0.272-0.066-0.547-0.077-0.825-0.032 0.27 0.42 0.651 0.664 1.143 0.73 0.147 0.053 0.295 0.117 0.444 0.19 0 0.042-0.021 0.063-0.064 0.063-0.313-0.065-0.62-0.149-0.921-0.254 0.098 0.27 0.256 0.513 0.476 0.73 0.322 0.197 0.661 0.355 1.016 0.476 0.187 0.103 0.357 0.23 0.508 0.381-0.021 0.042-0.042 0.085-0.064 0.127-0.368-0.328-0.791-0.561-1.27-0.698-0.065 0.032-0.075 0.074-0.032 0.127 0.148 0.243 0.307 0.475 0.476 0.698 0.004 0.070 0.025 0.134 0.064 0.19 0.141 0.388 0.331 0.748 0.571 1.079-0.069 0.008-0.111 0.050-0.127 0.127 0.003 0.058 0.024 0.101 0.064 0.127 0.050 0.418 0.22 0.778 0.508 1.079-0.042 0-0.064 0.021-0.064 0.063-0.061-0.029-0.114-0.071-0.159-0.127-0.064 0.379-0.011 0.738 0.159 1.079-0.063-0.011-0.105 0.010-0.127 0.063-0.027 0.413 0.016 0.815 0.127 1.206 0 0.085-0.042 0.127-0.127 0.127-0.004-0.034-0.025-0.056-0.064-0.064-0.111 0.306-0.153 0.624-0.127 0.952-0.002 0.108-0.044 0.193-0.127 0.254-0.18 0.599-0.159 1.192 0.064 1.778-0.017 0.281 0.004 0.556 0.064 0.825-0.152 0.088-0.258 0.215-0.317 0.381-0.055 0.061-0.097 0.061-0.127 0 0.336-0.619 0.325-1.233-0.032-1.841-0.109 0.156-0.193 0.325-0.254 0.508 0.022 0.637 0.012 1.272-0.032 1.905-0.071 0.054-0.071 0.117 0 0.19-0.064 0.042-0.127 0.085-0.19 0.127-0.053-0.022-0.074-0.064-0.064-0.127 0.155-0.503 0.166-1.011 0.032-1.524-0.213 0.214-0.361 0.468-0.444 0.762 0.009 0.564-0.065 1.114-0.222 1.651-0.085 0-0.127-0.042-0.127-0.127 0.123-0.414 0.155-0.837 0.095-1.27-0.492 0.413-0.725 0.942-0.698 1.587-0.043 0.225-0.117 0.436-0.222 0.635-0.085 0-0.127-0.042-0.127-0.127 0.123-0.418 0.197-0.842 0.222-1.27-0.332 0.257-0.575 0.574-0.73 0.952-0.042-0.057-0.084-0.12-0.127-0.19-0.065 0.023-0.107 0.065-0.127 0.127-0.592 0.34-0.973 0.848-1.143 1.524-0.057-0.050-0.1-0.114-0.127-0.19 0.080-0.233 0.185-0.456 0.317-0.667-0.649 0.183-1.104 0.596-1.365 1.238-0.151 0.14-0.288 0.288-0.413 0.444-0.105-0.010-0.19-0.052-0.254-0.127 0.334-0.285 0.609-0.624 0.825-1.016-0.239-0.024-0.472 0.029-0.698 0.159-0.222 0.169-0.434 0.349-0.635 0.54-0.097 0.005-0.16-0.038-0.19-0.127 0.093-0.061 0.177-0.135 0.254-0.222-0.254 0-0.508 0-0.762 0-0.393-0.186-0.774-0.387-1.143-0.603-0.347-0.227-0.707-0.438-1.079-0.635-0.318-0.222-0.656-0.413-1.016-0.571-0.051-0.078-0.115-0.141-0.19-0.19 0.022-0.053 0.064-0.074 0.127-0.064 0.078 0.034 0.152 0.076 0.222 0.127-0.084-0.507-0.242-0.994-0.476-1.46-0.273-0.61-0.559-1.203-0.857-1.778 0.275 0.299 0.519 0.616 0.73 0.952 0.222 0.381 0.391 0.783 0.508 1.206-0.007 0.119 0.025 0.14 0.095 0.064 0.051-0.161 0.040-0.309-0.032-0.444-0.095-0.478-0.265-0.922-0.508-1.333-0.256-0.567-0.214-0.588 0.127-0.064 0.18 0.36 0.36 0.72 0.54 1.079 0.009-0.47-0.128-0.893-0.413-1.27 0-0.042 0.021-0.064 0.063-0.064 0.143 0.18 0.27 0.37 0.381 0.571 0.004 0.034 0.025 0.056 0.063 0.064 0.083-0.575 0.083-1.147 0-1.714 0.020-0.154-0.002-0.302-0.063-0.444-0.121 0.054-0.248 0.075-0.381 0.064-0.063 0.011-0.105-0.010-0.127-0.064 0.207-0.004 0.397-0.057 0.571-0.159-0.396 0.056-0.798 0.088-1.206 0.095 0.063-0.042 0.127-0.085 0.19-0.127 0.306 0.018 0.602-0.024 0.889-0.127-0.228-0.327-0.376-0.666-0.444-1.016 0.143 0.306 0.333 0.582 0.571 0.825 0.087-0.19 0.055-0.359-0.095-0.508-0.127-0.201-0.286-0.37-0.476-0.508-0.147-0.252-0.296-0.506-0.444-0.762 0.011-0.021 0.021-0.042 0.032-0.063 0.109 0.177 0.247 0.325 0.413 0.444 0.19 0.201 0.37 0.413 0.54 0.635 0.042-0.212 0.042-0.423 0-0.635-0.113-0.072-0.229-0.136-0.349-0.19-0.313-0.228-0.61-0.482-0.889-0.762 0-0.021 0-0.042 0-0.063-0.004-0.028 0.006-0.049 0.032-0.063 0.266 0.277 0.572 0.488 0.921 0.635 0.403 0.107 0.615-0.062 0.635-0.508-0.019-0.334-0.188-0.546-0.508-0.635-0.027-0.046-0.069-0.078-0.127-0.095-0.253-0.032-0.507-0.042-0.762-0.032 0-0.021 0-0.042 0-0.063 0.255 0.011 0.509-0 0.762-0.032-0.117-0.072-0.244-0.103-0.381-0.095-0.234-0.014-0.466-0.035-0.698-0.063 0-0.021 0-0.042 0-0.063s0-0.042 0-0.063c0.381 0 0.762 0 1.143 0 0.148-0.148 0.296-0.296 0.444-0.444 0.107-0.087 0.213-0.171 0.317-0.254 0.13-0.106 0.257-0.212 0.381-0.317 0.116-0.047 0.222-0.111 0.317-0.19 0.040 0.026 0.061 0.069 0.063 0.127-0.128 0.956-0.276 1.908-0.444 2.857-0.089 0.065-0.174 0.128-0.254 0.19-0.085 0.148-0.085 0.296 0 0.444 0.257 0.394 0.617 0.648 1.079 0.762 0.045 0.057 0.108 0.079 0.19 0.064 0.288 0.079 0.584 0.079 0.889 0 0.556-0.098 1-0.373 1.333-0.825 0.085-0.127 0.085-0.254 0-0.381-0.083-0.147-0.21-0.232-0.381-0.254-0.343-1.372-0.724-2.727-1.143-4.064 0-0.042 0-0.085 0-0.127 0.166-0.119 0.304-0.267 0.413-0.444 0.276-0.522 0.519-1.051 0.73-1.587 0.157 0.142 0.284 0.312 0.381 0.508 0.095-0.106 0.211-0.169 0.349-0.19 0.327 0.085 0.634 0.212 0.921 0.381 0.267 0.129 0.51 0.298 0.73 0.508 0.025 0.107 0.014 0.212-0.032 0.317 0.071 0.267 0.209 0.309 0.413 0.127 0.139 0.036 0.181 0.12 0.127 0.254-0.211 0.276-0.433 0.308-0.667 0.095 0.029-0.082 0.071-0.156 0.127-0.222-0.087-0.069-0.161-0.048-0.222 0.063-0.094 0.276 0.002 0.424 0.286 0.444 0.005 0.236-0.016 0.469-0.064 0.698-0.265 1.823-0.551 3.643-0.857 5.46-0.066 0.055-0.119 0.119-0.159 0.19-0.087 0.16-0.066 0.308 0.064 0.444 0.294 0.378 0.675 0.632 1.143 0.762 0.305 0.079 0.601 0.079 0.889 0 0.587-0.082 1.053-0.357 1.397-0.825 0.085-0.127 0.085-0.254 0-0.381-0.105-0.143-0.242-0.249-0.413-0.317-0.031-0.060-0.041-0.124-0.032-0.19-0.498-1.718-1.006-3.433-1.524-5.143-0.068-0.22-0.132-0.442-0.19-0.667 0.192-0.138 0.319-0.318 0.381-0.54 0.003-0.207-0.103-0.303-0.317-0.286-0.068-0.047-0.111-0.11-0.127-0.19 0.132-0.079 0.195-0.195 0.19-0.349-0.336-0.052-0.653-0.157-0.952-0.317-0.345-0.227-0.683-0.471-1.016-0.73-0.072-0.113-0.136-0.229-0.19-0.349 0.068-0.137 0.068-0.264 0-0.381-0.059-0.226-0.080-0.459-0.064-0.698 0.103-0.071 0.199-0.156 0.286-0.254 0.042-0.233 0.042-0.466 0-0.698-0.054-0.068-0.107-0.131-0.159-0.19 0-0.042-0.021-0.064-0.064-0.064-0.020-0.267 0.001-0.521 0.064-0.762z"></path>
<path fill="#ddbd81" style="fill: var(--color15, #ddbd81)" d="M18.444 6.19c-0.011 0.255 0 0.509 0.032 0.762 0.045 0.094 0.119 0.136 0.222 0.127 0 0.042 0.021 0.064 0.064 0.064s0.064 0.021 0.064 0.064c-0.193 0-0.384 0.022-0.571 0.064 0.105-0.124 0.147-0.272 0.127-0.444-0.020-0.225 0.001-0.436 0.064-0.635z"></path>
<path fill="#a57433" style="fill: var(--color16, #a57433)" d="M21.111 7.46c-0.275-0.13-0.55-0.151-0.825-0.064-0.409 0.060-0.769-0.046-1.079-0.317 0.14-0.072 0.288-0.114 0.444-0.127 0.33-0.015 0.647 0.016 0.952 0.095-0.261-0.236-0.409-0.521-0.444-0.857-0.024-0.112-0.066-0.217-0.127-0.317 0.021-0.021 0.042-0.042 0.064-0.064 0.628 0.367 0.967 0.918 1.016 1.651z"></path>
<path fill="#866535" style="fill: var(--color17, #866535)" d="M10.635 7.587c0.111 0.067 0.154 0.173 0.127 0.317-0.225 0.016-0.436 0.058-0.635 0.127-0.11 0.020-0.215 0.031-0.317 0.032 0.159-0.409 0.317-0.822 0.476-1.238 0.173-0.205 0.374-0.374 0.603-0.508 0.021 0.021 0.042 0.042 0.063 0.064-0.131 0.284-0.226 0.581-0.286 0.889-0.071 0.135-0.166 0.251-0.286 0.349 0.084 0.012 0.168 0.002 0.254-0.032z"></path>
<path fill="#9b6a2d" style="fill: var(--color18, #9b6a2d)" d="M20.921 8.032c-0.308-0.070-0.584-0.207-0.825-0.413 0.217-0.121 0.45-0.174 0.698-0.159 0.127 0.021 0.254 0.042 0.381 0.064 0.154 0.062 0.302 0.115 0.444 0.159-0.176-0.151-0.314-0.331-0.413-0.54-0.016-0.271-0.090-0.525-0.222-0.762 0.032-0.065 0.074-0.075 0.127-0.032 0.265 0.18 0.487 0.402 0.667 0.667 0.077 0.364 0.193 0.713 0.349 1.048-0.397-0.026-0.799-0.037-1.206-0.032z"></path>
<path fill="#9f7030" style="fill: var(--color19, #9f7030)" d="M24.095 6.889c0.271 0.165 0.504 0.377 0.698 0.635-0.034 0.004-0.056 0.025-0.064 0.064 0.052 0.083 0.115 0.158 0.19 0.222-0.103 0.015-0.166 0.068-0.19 0.159-0.319-0.298-0.637-0.594-0.952-0.889 0.070-0.109 0.176-0.173 0.317-0.19z"></path>
<path fill="#c4ae90" style="fill: var(--color20, #c4ae90)" d="M18.127 7.27c0.028 0.064 0.070 0.064 0.127 0-0.008 0.047 0.002 0.089 0.032 0.127 0.174-0.070 0.354-0.081 0.54-0.032-0.209 0.016-0.399 0.080-0.571 0.19 0.233 0.021 0.466 0.042 0.698 0.064-0.194 0.016-0.385 0.048-0.571 0.095-0.081 0.055-0.070 0.097 0.032 0.127 0.181-0.076 0.361-0.076 0.54 0-0.218 0.026-0.409 0.089-0.571 0.19-0.095-0.219-0.201-0.431-0.317-0.635-0.011-0.063 0.010-0.105 0.064-0.127z"></path>
<path fill="#915f24" style="fill: var(--color21, #915f24)" d="M22.889 8.159c-0.009 0.234 0.034 0.456 0.127 0.667-0.148-0.010-0.296-0.042-0.444-0.095-0.603 0.048-1.132-0.122-1.587-0.508 0.488-0.189 0.964-0.147 1.429 0.127-0.167-0.446-0.273-0.912-0.317-1.397 0.457 0.279 0.721 0.681 0.794 1.206z"></path>
<path fill="#9f7c44" style="fill: var(--color22, #9f7c44)" d="M11.651 6.952c-0.053 0.182-0.159 0.246-0.317 0.19-0.076 0.065-0.161 0.118-0.254 0.159 0.203 0.011 0.393 0.043 0.571 0.095-0.234-0.010-0.467 0-0.698 0.032 0.304 0.036 0.6 0.1 0.889 0.19-0.191 0.159-0.402 0.286-0.635 0.381-0.359 0.032-0.719 0.042-1.079 0.032 0.199-0.069 0.41-0.111 0.635-0.127 0.027-0.145-0.015-0.251-0.127-0.317 0.257-0.304 0.416-0.664 0.476-1.079 0.785-0.951 0.954-0.888 0.508 0.19-0.071 0.135-0.166 0.251-0.286 0.349 0.107-0.008 0.213-0.040 0.317-0.095z"></path>
<path fill="#705028" style="fill: var(--color23, #705028)" d="M9.81 8.222c-0.050 0.187 0.014 0.335 0.19 0.444-0.376-0.014-0.736 0.039-1.079 0.159-0.031-0.796 0.275-1.421 0.921-1.873-0.052 0.289-0.094 0.585-0.127 0.889-0.041 0.166-0.115 0.314-0.222 0.444 0.011 0.021 0.021 0.042 0.032 0.063 0.084-0.069 0.18-0.111 0.286-0.127z"></path>
<path fill="#ece4d9" style="fill: var(--color24, #ece4d9)" d="M23.079 7.714c0.021 0.475 0.095 0.94 0.222 1.397 0.126 0.080 0.189 0.186 0.19 0.317-0.134-0.166-0.292-0.293-0.476-0.381-0.070-0.067-0.155-0.12-0.254-0.159-0.296-0.032-0.592-0.042-0.889-0.032 0.196-0.046 0.429-0.089 0.698-0.127 0.148 0.054 0.296 0.085 0.444 0.095-0.093-0.211-0.136-0.433-0.127-0.667 0.096-0.133 0.16-0.281 0.19-0.444z"></path>
<path fill="#88551b" style="fill: var(--color25, #88551b)" d="M18.825 7.206c0.052 0.059 0.105 0.122 0.159 0.19 0.042 0.233 0.042 0.466 0 0.698-0.087 0.098-0.182 0.183-0.286 0.254-0.014-0.104 0.008-0.2 0.064-0.286-0.125-0.031-0.252-0.042-0.381-0.032 0.163-0.101 0.353-0.165 0.571-0.19-0.179-0.076-0.359-0.076-0.54 0-0.102-0.030-0.113-0.072-0.032-0.127 0.187-0.047 0.377-0.079 0.571-0.095-0.233-0.021-0.466-0.042-0.698-0.064 0.172-0.111 0.363-0.174 0.571-0.19-0.186-0.049-0.366-0.039-0.54 0.032-0.029-0.038-0.040-0.080-0.032-0.127 0.188-0.042 0.378-0.063 0.571-0.064z"></path>
<path fill="#e3ba66" style="fill: var(--color26, #e3ba66)" d="M18.381 8.032c0.129-0.010 0.256 0 0.381 0.032-0.056 0.086-0.077 0.181-0.064 0.286-0.016 0.239 0.005 0.472 0.064 0.698 0.008 0.056-0.013 0.098-0.064 0.127-0.115-0.078-0.221-0.078-0.317 0-0.157-0.028-0.168-0.092-0.032-0.19 0.032-0.317 0.042-0.634 0.032-0.952z"></path>
<path fill="#9c6a2c" style="fill: var(--color27, #9c6a2c)" d="M23.079 7.714c0.257 0.183 0.458 0.416 0.603 0.698 0.067 0.4 0.12 0.802 0.159 1.206-0.021 0.042-0.042 0.085-0.064 0.127-0.058-0.040-0.122-0.061-0.19-0.063-0.283-0.136-0.58-0.22-0.889-0.254 0.106 0 0.212 0 0.317 0 0.020-0.141-0.022-0.258-0.127-0.349 0.038-0.029 0.080-0.040 0.127-0.032 0.184 0.088 0.342 0.215 0.476 0.381-0.001-0.131-0.065-0.237-0.19-0.317-0.127-0.456-0.201-0.922-0.222-1.397z"></path>
<path fill="#b88a44" style="fill: var(--color28, #b88a44)" d="M24.794 7.524c0.557 0.557 1.044 1.171 1.46 1.841-0.028 0.169-0.091 0.317-0.19 0.444-0.421-0.633-0.866-1.246-1.333-1.841 0.024-0.091 0.088-0.144 0.19-0.159-0.075-0.065-0.139-0.139-0.19-0.222 0.008-0.039 0.029-0.060 0.064-0.064z"></path>
<path fill="#95733f" style="fill: var(--color29, #95733f)" d="M17.111 8.921c-0.046 0.067-0.109 0.109-0.19 0.127-0.5-0.206-0.553-0.142-0.159 0.19 0.071 0.281-0.024 0.471-0.286 0.571 0-0.042-0.021-0.063-0.064-0.063 0.119-0.088 0.203-0.204 0.254-0.349-0.021-0.032-0.042-0.063-0.064-0.095-0.124 0.129-0.261 0.15-0.413 0.063-0.050-0.228 0.003-0.429 0.159-0.603-0.071-0.088-0.103-0.184-0.095-0.286 0.026-0.029 0.058-0.050 0.095-0.063 0.274 0.148 0.528 0.317 0.762 0.508z"></path>
<path fill="#8e5b20" style="fill: var(--color30, #8e5b20)" d="M21.873 8.857c0.297-0.011 0.593 0 0.889 0.032 0.099 0.039 0.184 0.092 0.254 0.159-0.047-0.008-0.089 0.002-0.127 0.032 0.105 0.092 0.147 0.208 0.127 0.349-0.106 0-0.212 0-0.317 0-0.35-0.080-0.625-0.27-0.825-0.571z"></path>
<path fill="#faf8f5" style="fill: var(--color31, #faf8f5)" d="M16.921 9.048c0.212 0.148 0.423 0.296 0.635 0.444-0.297 0.468-0.593 0.934-0.889 1.397-0.070-0.31-0.154-0.617-0.254-0.921 0.015-0.057 0.037-0.11 0.064-0.159 0.262-0.1 0.357-0.291 0.286-0.571-0.395-0.333-0.342-0.396 0.159-0.19z"></path>
<path fill="#8c591e" style="fill: var(--color32, #8c591e)" d="M18.064 7.397c0.116 0.204 0.222 0.415 0.317 0.635 0.011 0.318-0 0.636-0.032 0.952-0.136 0.099-0.125 0.162 0.032 0.19 0 0.021 0 0.042 0 0.063-0.086 0.032-0.15 0.096-0.19 0.19-0.162-0.070-0.311-0.155-0.444-0.254 0.077-0.218 0.172-0.429 0.286-0.635 0.032-0.38 0.042-0.761 0.032-1.143z"></path>
<path fill="#6b4c25" style="fill: var(--color33, #6b4c25)" d="M8.667 9.556c-0.208 0.024-0.387 0.109-0.54 0.254 0.022-0.335 0.032-0.673 0.032-1.016 0.091-0.436 0.314-0.796 0.667-1.079-0.008 0.358-0.029 0.718-0.063 1.079-0.073 0.209-0.158 0.399-0.254 0.571 0.412-0.481 0.931-0.639 1.556-0.476-0.375 0.424-0.84 0.646-1.397 0.667z"></path>
<path fill="#e6d19c" style="fill: var(--color34, #e6d19c)" d="M18.762 9.048c0.068 0.117 0.068 0.244 0 0.381-0.057-0.045-0.079-0.108-0.064-0.19-0.106 0-0.212 0-0.317 0 0-0.021 0-0.042 0-0.063 0.096-0.078 0.202-0.078 0.317 0 0.051-0.029 0.072-0.071 0.064-0.127z"></path>
<path fill="#e0b764" style="fill: var(--color35, #e0b764)" d="M17.111 8.921c0.196 0.119 0.408 0.204 0.635 0.254 0.134 0.099 0.282 0.184 0.444 0.254 0.041-0.095 0.104-0.158 0.19-0.19 0.106 0 0.212 0 0.317 0-0.015 0.082 0.006 0.145 0.064 0.19 0.055 0.12 0.118 0.236 0.19 0.349 0.332 0.259 0.671 0.503 1.016 0.73-0.082-0.015-0.145 0.006-0.19 0.063-0.287-0.169-0.593-0.296-0.921-0.381-0.138 0.021-0.254 0.085-0.349 0.19-0.097-0.196-0.224-0.366-0.381-0.508-0.157-0.174-0.348-0.301-0.571-0.381-0.212-0.148-0.423-0.296-0.635-0.444 0.081-0.018 0.145-0.060 0.19-0.127z"></path>
<path fill="#ad7d3b" style="fill: var(--color36, #ad7d3b)" d="M24.032 8.603c0.407 0.374 0.576 0.84 0.508 1.397-0.052 0.242-0.084 0.496-0.095 0.762-0.081-0.088-0.176-0.151-0.286-0.19-0.15-0.074-0.298-0.137-0.444-0.19 0.069-0.008 0.111-0.050 0.127-0.127-0.065-0.128-0.128-0.255-0.19-0.381 0.184 0.088 0.342 0.215 0.476 0.381-0.142-0.336-0.216-0.696-0.222-1.079 0.042-0.19 0.085-0.381 0.127-0.571z"></path>
<path fill="#c6b38d" style="fill: var(--color37, #c6b38d)" d="M12.095 9.302c0.207 0.004 0.397 0.057 0.571 0.159-0.063 0.021-0.127 0.042-0.19 0.063 0.168 0.011 0.337 0.001 0.508-0.032 0.39-0.013 0.538 0.156 0.444 0.508-0.015-0.099-0.057-0.184-0.127-0.254-0.013-0.13-0.066-0.151-0.159-0.063-0.188-0.184-0.241-0.163-0.159 0.063-0.020 0.051-0.051 0.094-0.095 0.127-0.162-0.029-0.342-0.050-0.54-0.063 0.165-0.204 0.123-0.236-0.127-0.095-0.119 0.098-0.214 0.214-0.286 0.349-0.042-0.063-0.042-0.127 0-0.19 0.119-0.14 0.257-0.257 0.413-0.349-0.153-0.004-0.238-0.078-0.254-0.222z"></path>
<path fill="#e3ded6" style="fill: var(--color38, #e3ded6)" d="M8.159 8.794c0 0.342-0.010 0.681-0.032 1.016 0.152-0.145 0.332-0.23 0.54-0.254 0.177 0.062 0.367 0.083 0.571 0.063-0.292 0.039-0.588 0.092-0.889 0.159-0.265 0.18-0.487 0.402-0.667 0.667 0.123-0.235 0.229-0.489 0.317-0.762 0.031-0.125 0.042-0.252 0.032-0.381 0.042-0.169 0.085-0.339 0.127-0.508z"></path>
<path fill="#8a6c43" style="fill: var(--color39, #8a6c43)" d="M16.413 9.746c0.042 0 0.064 0.021 0.064 0.063-0.027 0.049-0.048 0.101-0.064 0.159 0.1 0.304 0.184 0.611 0.254 0.921 0 0.063 0 0.127 0 0.19-0.021 0-0.042 0-0.064 0-0.063-0.347-0.158-0.685-0.286-1.016-0.119 0.502-0.193 1.010-0.222 1.524-0.021 0-0.042 0-0.064 0 0-0.042-0.021-0.063-0.063-0.063 0.067-0.524 0.151-1.042 0.254-1.556-0.314-0.017-0.43-0.176-0.349-0.476 0.032-0.153 0.106-0.195 0.222-0.127-0.079 0.116-0.122 0.243-0.127 0.381 0.148 0 0.296 0 0.444 0z"></path>
<path fill="#a39076" style="fill: var(--color40, #a39076)" d="M11.968 9.302c-0.086 0.127-0.044 0.201 0.127 0.222-0.109 0.221-0.247 0.252-0.413 0.095-0.032 0.032-0.063 0.063-0.095 0.095 0.075 0.065 0.139 0.139 0.19 0.222-0.021 0.063-0.063 0.106-0.127 0.127-0.307-0.17-0.329-0.371-0.063-0.603-0.135-0.022-0.156-0.075-0.063-0.159 0.133-0.023 0.281-0.023 0.444 0z"></path>
<path fill="#c5b494" style="fill: var(--color41, #c5b494)" d="M12.73 10.317c-0.132-0.047-0.259-0.047-0.381 0 0-0.063 0-0.127 0-0.19-0.083 0.052-0.158 0.115-0.222 0.19-0.021-0.042-0.042-0.085-0.063-0.127-0.046 0.060-0.098 0.071-0.159 0.032 0.109-0.16 0.257-0.255 0.444-0.286 0.148-0.069 0.296-0.058 0.444 0.032-0.063 0.021-0.127 0.042-0.19 0.063 0.085 0.042 0.085 0.085 0 0.127 0.085 0.021 0.169 0.042 0.254 0.063-0.058 0.018-0.1 0.049-0.127 0.095z"></path>
<path fill="#6b4b25" style="fill: var(--color42, #6b4b25)" d="M7.905 8.603c0.042 0.169 0.085 0.339 0.127 0.508 0 0.063 0 0.127 0 0.19 0.010 0.129-0 0.256-0.032 0.381-0.088 0.273-0.194 0.527-0.317 0.762 0.18-0.265 0.402-0.487 0.667-0.667 0.301-0.067 0.597-0.12 0.889-0.159 0.047-0.008 0.089 0.002 0.127 0.032-0.189 0.306-0.443 0.529-0.762 0.667-0.416 0.033-0.786 0.182-1.111 0.444-0.011-0.266-0.043-0.52-0.095-0.762-0.045-0.545 0.125-1.011 0.508-1.397z"></path>
<path fill="#bc8f46" style="fill: var(--color43, #bc8f46)" d="M25.175 11.968c-0.151-0.151-0.321-0.278-0.508-0.381 0.073-0.042 0.158-0.053 0.254-0.032-0.048-0.043-0.069-0.095-0.064-0.159-0.159-0.341-0.223-0.7-0.19-1.079 0.026-0.275 0.058-0.55 0.095-0.825 0.196 0.201 0.344 0.433 0.444 0.698 0.021 0.593 0.011 1.185-0.032 1.778z"></path>
<path fill="#7d5e33" style="fill: var(--color44, #7d5e33)" d="M11.524 9.302c-0.092 0.084-0.071 0.137 0.063 0.159-0.265 0.232-0.244 0.433 0.063 0.603 0.063-0.021 0.106-0.063 0.127-0.127-0.052-0.083-0.115-0.158-0.19-0.222 0.032-0.032 0.063-0.063 0.095-0.095 0.166 0.157 0.304 0.125 0.413-0.095-0.171-0.021-0.213-0.095-0.127-0.222 0.042 0 0.085 0 0.127 0 0.016 0.145 0.101 0.219 0.254 0.222-0.156 0.093-0.294 0.209-0.413 0.349-0.042 0.063-0.042 0.127 0 0.19 0.071-0.135 0.166-0.251 0.286-0.349 0.25-0.141 0.292-0.109 0.127 0.095-0.047-0.008-0.089 0.002-0.127 0.032 0.058 0.018 0.1 0.049 0.127 0.095-0.188 0.031-0.336 0.126-0.444 0.286 0.060 0.039 0.113 0.029 0.159-0.032 0.021 0.042 0.042 0.085 0.063 0.127 0.065-0.075 0.139-0.139 0.222-0.19 0 0.063 0 0.127 0 0.19 0.122-0.047 0.249-0.047 0.381 0 0 0.021 0 0.042 0 0.063-0.021 0-0.042 0-0.063 0-0.318-0.029-0.615 0.034-0.889 0.19 0.019-0.080 0.019-0.154 0-0.222-0.193-0.023-0.214-0.065-0.063-0.127-0.147-0.042-0.295-0.074-0.444-0.095-0.076 0.049-0.139 0.113-0.19 0.19-0.149-0.017-0.149-0.070 0-0.159-0.343 0.014-0.385-0.071-0.127-0.254-0.099-0.019-0.184 0.013-0.254 0.095 0.015-0.099 0.057-0.184 0.127-0.254 0.273 0.003 0.421-0.124 0.444-0.381 0.085-0.021 0.169-0.042 0.254-0.063z"></path>
<path fill="#6e4f28" style="fill: var(--color45, #6e4f28)" d="M7.524 10.889c0.125-0.126 0.273-0.221 0.444-0.286 0.27-0.044 0.524-0.119 0.762-0.222 0.065 0.025 0.076 0.068 0.032 0.127-0.301 0.537-0.756 0.865-1.365 0.984-0.182 0.101-0.351 0.218-0.508 0.349-0.042-0.106-0.085-0.212-0.127-0.317-0.061-0.443-0.071-0.887-0.032-1.333 0.101-0.265 0.249-0.498 0.444-0.698 0.037 0.352 0.089 0.701 0.159 1.048-0.040 0.279-0.125 0.543-0.254 0.794 0.011 0.021 0.021 0.042 0.032 0.063 0.127-0.18 0.265-0.349 0.413-0.508z"></path>
<path fill="#bd9f69" style="fill: var(--color46, #bd9f69)" d="M13.302 9.746c-0.101 0.281-0.291 0.493-0.571 0.635 0-0.021 0-0.042 0-0.063 0.027-0.046 0.069-0.078 0.127-0.095-0.085-0.021-0.169-0.042-0.254-0.063 0.085-0.042 0.085-0.085 0-0.127 0.063-0.021 0.127-0.042 0.19-0.063-0.149-0.090-0.297-0.1-0.444-0.032-0.027-0.046-0.069-0.078-0.127-0.095 0.038-0.029 0.080-0.040 0.127-0.032 0.198 0.013 0.378 0.035 0.54 0.063 0.044-0.033 0.076-0.076 0.095-0.127-0.082-0.226-0.029-0.247 0.159-0.063 0.093-0.088 0.146-0.067 0.159 0.063z"></path>
<path fill="#c6b698" style="fill: var(--color47, #c6b698)" d="M12.667 10.381c0.027 0.046 0.069 0.078 0.127 0.095-0.038 0.029-0.080 0.040-0.127 0.032-0.021 0-0.042 0-0.063 0-0.015-0.038-0.047-0.059-0.095-0.063-0.083 0.030-0.157 0.073-0.222 0.127-0.167-0.052-0.325-0.010-0.476 0.127-0.029-0.038-0.040-0.080-0.032-0.127 0.274-0.156 0.57-0.22 0.889-0.19z"></path>
<path fill="#b1a28d" style="fill: var(--color48, #b1a28d)" d="M11.27 10.127c0.149 0.021 0.298 0.053 0.444 0.095-0.151 0.062-0.13 0.104 0.063 0.127 0.019 0.068 0.019 0.142 0 0.222-0.11 0.032-0.131 0.085-0.063 0.159-0.084 0.052-0.126 0.126-0.127 0.222-0.1 0.075-0.152 0.181-0.159 0.317-0.042 0.127-0.042 0.254 0 0.381 0.021-0.085 0.042-0.169 0.063-0.254 0.063 0.085 0.127 0.169 0.19 0.254 0.045-0.094 0.119-0.136 0.222-0.127 0.021 0 0.042 0 0.063 0-0.054 0.106-0.138 0.18-0.254 0.222 0.093 0.101 0.157 0.217 0.19 0.349-0.075 0.155-0.16 0.303-0.254 0.444-0.059-0.205-0.112-0.438-0.159-0.698-0.012 0.182-0.043 0.351-0.095 0.508 0.010-0.15-0-0.298-0.032-0.444-0.030 0.091-0.082 0.165-0.159 0.222 0.058 0.018 0.1 0.049 0.127 0.095-0.108-0.010-0.214 0-0.317 0.032-0.046 0.174-0.152 0.238-0.317 0.19 0.162-0.096 0.141-0.149-0.063-0.159 0.027-0.046 0.069-0.078 0.127-0.095-0.056-0.045-0.098-0.098-0.127-0.159 0.108-0.002 0.193-0.044 0.254-0.127 0 0.042 0.021 0.063 0.063 0.063 0.004 0.034 0.025 0.056 0.063 0.063 0.047-0.089 0.1-0.174 0.159-0.254 0.021 0.021 0.042 0.042 0.063 0.063-0.006-0.119 0.005-0.225 0.032-0.317 0.040-0.248 0.125-0.523 0.254-0.825 0.048-0.065 0.090-0.14 0.127-0.222-0.197-0.092-0.387-0.145-0.571-0.159 0.051-0.078 0.115-0.141 0.19-0.19z"></path>
<path fill="#9e8b74" style="fill: var(--color49, #9e8b74)" d="M11.079 10.317c0.184 0.014 0.375 0.067 0.571 0.159-0.037 0.083-0.079 0.157-0.127 0.222-0.106-0.042-0.212-0.085-0.317-0.127 0.004-0.028-0.006-0.049-0.032-0.063-0.157 0.205-0.231 0.438-0.222 0.698-0.033 0.107-0.054 0.213-0.063 0.317-0.096-0.125-0.139-0.273-0.127-0.444-0.003-0.203 0.039-0.393 0.127-0.571-0.020-0.098-0.084-0.141-0.19-0.127-0.031 0.146-0.052 0.295-0.063 0.444-0.042-0.071-0.063-0.156-0.063-0.254 0.040-0.215 0.082-0.405 0.127-0.571 0.070-0.083 0.155-0.114 0.254-0.095-0.258 0.183-0.216 0.268 0.127 0.254-0.149 0.088-0.149 0.141 0 0.159z"></path>
<path fill="#e3ded7" style="fill: var(--color50, #e3ded7)" d="M7.397 10c0.052 0.242 0.084 0.496 0.095 0.762 0.325-0.263 0.695-0.411 1.111-0.444 0.022 0.053 0.064 0.074 0.127 0.063-0.238 0.104-0.492 0.178-0.762 0.222-0.172 0.064-0.32 0.159-0.444 0.286-0.117-0.276-0.16-0.573-0.127-0.889z"></path>
<path fill="#8b571c" style="fill: var(--color51, #8b571c)" d="M17.556 9.492c0.224 0.080 0.414 0.207 0.571 0.381-0.211 0.536-0.455 1.065-0.73 1.587-0.109 0.177-0.247 0.325-0.413 0.444-0.072-0.246-0.147-0.5-0.222-0.762-0.024-0.035-0.056-0.056-0.095-0.063 0-0.063 0-0.127 0-0.19 0.295-0.463 0.592-0.929 0.889-1.397z"></path>
<path fill="#977e5b" style="fill: var(--color52, #977e5b)" d="M12.286 10.571c-0.254 0.104-0.402 0.295-0.444 0.571-0.083-0.088-0.083-0.183 0-0.286-0.099-0.019-0.184 0.013-0.254 0.095 0.001-0.096 0.043-0.17 0.127-0.222-0.068-0.074-0.047-0.126 0.063-0.159-0.008 0.047 0.002 0.089 0.032 0.127 0.151-0.137 0.31-0.179 0.476-0.127z"></path>
<path fill="#aa7b39" style="fill: var(--color53, #aa7b39)" d="M24.095 10.635c0.275 0.233 0.529 0.487 0.762 0.762-0.005 0.063 0.016 0.116 0.064 0.159-0.096-0.021-0.181-0.010-0.254 0.032-0.355-0.121-0.694-0.28-1.016-0.476-0.22-0.217-0.379-0.46-0.476-0.73 0.3 0.105 0.607 0.189 0.921 0.254z"></path>
<path fill="#e7dcc7" style="fill: var(--color54, #e7dcc7)" d="M24.54 10c-0.011 0.276 0 0.551 0.032 0.825 0.012-0.182 0.043-0.351 0.095-0.508-0.032 0.379 0.031 0.739 0.19 1.079-0.233-0.275-0.487-0.529-0.762-0.762 0.042 0 0.064-0.021 0.064-0.063 0.11 0.039 0.205 0.103 0.286 0.19 0.011-0.266 0.043-0.52 0.095-0.762z"></path>
<path fill="#b38644" style="fill: var(--color55, #b38644)" d="M19.968 10.508c0.299 0.16 0.617 0.266 0.952 0.317 0.005 0.154-0.059 0.27-0.19 0.349 0.016 0.080 0.059 0.144 0.127 0.19 0.215-0.017 0.32 0.078 0.317 0.286-0.062 0.221-0.189 0.401-0.381 0.54 0.059 0.225 0.122 0.447 0.19 0.667-0.042 0-0.064 0.021-0.064 0.063-0.073-0.205-0.147-0.416-0.222-0.635-0.047 0.222-0.1 0.433-0.159 0.635 0-0.042-0.021-0.063-0.064-0.063 0.047-0.23 0.068-0.463 0.064-0.698-0.284-0.020-0.379-0.169-0.286-0.444 0.061-0.112 0.135-0.133 0.222-0.063-0.056 0.067-0.098 0.141-0.127 0.222 0.233 0.213 0.456 0.181 0.667-0.095 0.054-0.134 0.012-0.218-0.127-0.254-0.204 0.182-0.342 0.14-0.413-0.127 0.046-0.105 0.057-0.211 0.032-0.317-0.22-0.21-0.463-0.379-0.73-0.508 0.045-0.057 0.108-0.079 0.19-0.063z"></path>
<path fill="#cda65b" style="fill: var(--color56, #cda65b)" d="M13.238 12.159c-0.048-0.049-0.112-0.081-0.19-0.095 0.045-0.199 0.087-0.4 0.127-0.603 0.011-0.186-0.010-0.376-0.063-0.571 0.295-0.206 0.528-0.143 0.698 0.19-0.078 0.054-0.163 0.097-0.254 0.127-0.096-0.167-0.138-0.146-0.127 0.063 0.189 0.016 0.273 0.121 0.254 0.317-0.075-0.014-0.138 0.007-0.19 0.063 0.049 0.077 0.102 0.077 0.159 0 0.142 0.407 0.004 0.576-0.413 0.508z"></path>
<path fill="#64441d" style="fill: var(--color57, #64441d)" d="M11.206 10.571c0.106 0.042 0.212 0.085 0.317 0.127-0.129 0.302-0.214 0.577-0.254 0.825-0.022-0.053-0.064-0.074-0.127-0.063 0.088-0.219 0.173-0.442 0.254-0.667-0.103-0.004-0.187-0.015-0.254-0.032 0.004-0.070 0.025-0.134 0.063-0.19z"></path>
<path fill="#cb9f54" style="fill: var(--color58, #cb9f54)" d="M25.492 12.921c0.028 0.004 0.049-0.006 0.064-0.032-0.088-0.081-0.151-0.176-0.19-0.286 0.038-0.015 0.059-0.047 0.064-0.095-0.122-0.362-0.154-0.732-0.095-1.111 0.083-0.249 0.147-0.503 0.19-0.762 0.373 0.42 0.5 0.907 0.381 1.46-0.117 0.33-0.201 0.668-0.254 1.016-0.066-0.055-0.119-0.119-0.159-0.19z"></path>
<path fill="#89693c" style="fill: var(--color59, #89693c)" d="M12.603 10.508c0.021 0 0.042 0 0.063 0-0.218 0.186-0.43 0.387-0.635 0.603 0.099 0.019 0.184-0.013 0.254-0.095 0.042 0 0.063 0.021 0.063 0.063-0.168 0.125-0.316 0.273-0.444 0.444-0.103-0.009-0.177 0.033-0.222 0.127-0.063-0.085-0.127-0.169-0.19-0.254-0.021 0.085-0.042 0.169-0.063 0.254-0.042-0.127-0.042-0.254 0-0.381 0.006-0.137 0.059-0.242 0.159-0.317-0.052 0.124-0.063 0.251-0.032 0.381 0.072-0.231 0.136-0.21 0.19 0.063 0.066-0.055 0.119-0.119 0.159-0.19 0.103-0.359 0.336-0.592 0.698-0.698z"></path>
<path fill="#bb9550" style="fill: var(--color60, #bb9550)" d="M13.111 10.889c0.053 0.195 0.075 0.386 0.063 0.571-0.040 0.203-0.082 0.404-0.127 0.603 0.079 0.015 0.142 0.046 0.19 0.095-0.204-0.020-0.394 0.001-0.571 0.063-0.034-0.004-0.056-0.025-0.063-0.063 0.047-0.050 0.1-0.092 0.159-0.127 0.070-0.335 0.101-0.674 0.095-1.016 0.064-0.075 0.149-0.117 0.254-0.127z"></path>
<path fill="#7d5d31" style="fill: var(--color61, #7d5d31)" d="M6.571 12.603c-0.060 0.098-0.102 0.204-0.127 0.317-0.040 0.072-0.092 0.135-0.159 0.19-0.033-0.352-0.117-0.691-0.254-1.016-0.115-0.552 0.012-1.039 0.381-1.46 0.040 0.261 0.103 0.515 0.19 0.762 0.061 0.391 0.030 0.771-0.095 1.143 0.008 0.039 0.029 0.060 0.064 0.063z"></path>
<path fill="#beb19d" style="fill: var(--color62, #beb19d)" d="M11.841 11.143c0 0.042 0.021 0.063 0.063 0.063-0.040 0.072-0.092 0.135-0.159 0.19-0.055-0.273-0.118-0.295-0.19-0.063-0.031-0.13-0.021-0.257 0.032-0.381 0.070-0.083 0.155-0.114 0.254-0.095-0.083 0.103-0.083 0.198 0 0.286z"></path>
<path fill="#856c4f" style="fill: var(--color63, #856c4f)" d="M10.952 11.206c-0.011 0.063 0.010 0.105 0.063 0.127 0.012 0.131 0.044 0.258 0.095 0.381 0.031-0.082 0.042-0.167 0.032-0.254 0.063-0.011 0.105 0.010 0.127 0.063-0.027 0.092-0.038 0.198-0.032 0.317-0.021-0.021-0.042-0.042-0.063-0.063-0.059 0.080-0.112 0.165-0.159 0.254-0.039-0.008-0.060-0.029-0.063-0.063 0.074-0.151 0.053-0.299-0.063-0.444 0.010-0.104 0.031-0.21 0.063-0.317z"></path>
<path fill="#a57d41" style="fill: var(--color64, #a57d41)" d="M16.667 11.079c0.039 0.007 0.071 0.028 0.095 0.063 0.076 0.262 0.15 0.516 0.222 0.762 0 0.042 0 0.085 0 0.127 0.011 0.063-0.010 0.105-0.064 0.127 0.011-0.063-0.010-0.105-0.064-0.127-0.073-0.315-0.137-0.633-0.19-0.952z"></path>
<path fill="#8a571c" style="fill: var(--color65, #8a571c)" d="M16.603 11.079c0.021 0 0.042 0 0.064 0 0.054 0.32 0.117 0.637 0.19 0.952-0.299 0.299-0.616 0.574-0.952 0.825 0.048-0.423 0.091-0.846 0.127-1.27 0.021 0 0.042 0 0.064 0 0.254-0.085 0.423-0.254 0.508-0.508z"></path>
<path fill="#f6f6f3" style="fill: var(--color66, #f6f6f3)" d="M11.397 12.349c0 0.042 0 0.085 0 0.127-0.217 0.008-0.239-0.034-0.063-0.127 0-0.042 0-0.085 0-0.127-0.027-0.046-0.069-0.078-0.127-0.095 0.076-0.057 0.129-0.131 0.159-0.222 0.032 0.147 0.042 0.295 0.032 0.444z"></path>
<path fill="#8f6c38" style="fill: var(--color67, #8f6c38)" d="M12.349 11.27c0.082 0.087 0.124 0.204 0.127 0.349-0.051 0.801-0.136 1.595-0.254 2.381-0.386-0.111-0.703-0.322-0.952-0.635 0.513-0.263 0.724-0.687 0.635-1.27-0.034-0.132-0.097-0.249-0.19-0.349 0.116-0.042 0.2-0.116 0.254-0.222 0.127-0.085 0.254-0.169 0.381-0.254z"></path>
<path fill="#b88a44" style="fill: var(--color28, #b88a44)" d="M25.111 12.095c0.112 0.155 0.197 0.324 0.254 0.508 0.039 0.11 0.103 0.205 0.19 0.286-0.014 0.025-0.036 0.036-0.064 0.032-0.38-0.268-0.782-0.501-1.206-0.698-0.17-0.223-0.328-0.456-0.476-0.698-0.044-0.053-0.033-0.095 0.032-0.127 0.478 0.138 0.902 0.371 1.27 0.698z"></path>
<path fill="#ad8748" style="fill: var(--color68, #ad8748)" d="M12.857 11.016c0.006 0.342-0.026 0.681-0.095 1.016-0.059 0.035-0.112 0.077-0.159 0.127 0.008 0.039 0.029 0.060 0.063 0.063 0.127 0 0.254 0 0.381 0 0 0.106 0 0.212 0 0.317-0.050-0.070-0.082-0.155-0.095-0.254-0.114 0.116-0.124 0.243-0.032 0.381-0.066 0.505-0.109 1.012-0.127 1.524-0.217-0.002-0.407-0.065-0.571-0.19 0.118-0.786 0.203-1.58 0.254-2.381-0.003-0.146-0.045-0.262-0.127-0.349 0.152-0.118 0.321-0.203 0.508-0.254z"></path>
<path fill="#fdfcfb" style="fill: var(--color69, #fdfcfb)" d="M16.857 12.032c0.053 0.022 0.074 0.064 0.064 0.127 0.385 1.262 0.745 2.531 1.079 3.81-0.106 0-0.212 0-0.317 0-0.301-0.095-0.619-0.138-0.952-0.127-0.223 0-0.435 0.021-0.635 0.063-0.223-0.012-0.434 0.030-0.635 0.127 0.088-1.061 0.236-2.119 0.444-3.175 0.336-0.251 0.654-0.527 0.952-0.825z"></path>
<path fill="#fdfcfb" style="fill: var(--color69, #fdfcfb)" d="M20.921 12.921c0.47 1.712 0.978 3.405 1.524 5.079 0.002 0.063-0.030 0.106-0.095 0.127-0.176-0.054-0.356-0.075-0.54-0.064-0.423-0.085-0.847-0.085-1.27 0-0.258 0.022-0.512 0.064-0.762 0.127 0.278-1.753 0.532-3.51 0.762-5.27 0.059-0.202 0.112-0.413 0.159-0.635 0.075 0.219 0.149 0.43 0.222 0.635z"></path>
<path fill="#6f512f" style="fill: var(--color70, #6f512f)" d="M11.333 12.222c0 0.042 0 0.085 0 0.127-0.106 0-0.212 0-0.317 0 0.036 0.118 0.036 0.224 0 0.317-0.021 0-0.042 0-0.063 0-0.024-0.040-0.045-0.083-0.063-0.127-0.179 0.077-0.285 0.013-0.317-0.19 0-0.042 0.021-0.063 0.063-0.063 0.204 0.010 0.225 0.062 0.063 0.159 0.166 0.047 0.272-0.016 0.317-0.19 0.104-0.031 0.21-0.042 0.317-0.032z"></path>
<path fill="#9b6a29" style="fill: var(--color71, #9b6a29)" d="M15.206 12.222c0.072 0.26 0.072 0.525 0 0.794-0.012 0.127 0.030 0.223 0.127 0.286-0.124 0.105-0.251 0.211-0.381 0.317-0.050-0.018-0.092-0.050-0.127-0.095 0.054-0.383 0.097-0.754 0.127-1.111 0.059-0.094 0.144-0.157 0.254-0.19z"></path>
<path fill="#c19b54" style="fill: var(--color72, #c19b54)" d="M13.048 12.54c-0.014 0.187 0.029 0.357 0.127 0.508-0.066 0.375-0.066 0.767 0 1.175-0.038 0.029-0.080 0.040-0.127 0.032-0.102 0.017-0.186-0.004-0.254-0.063 0.018-0.511 0.061-1.019 0.127-1.524-0.092-0.138-0.082-0.265 0.032-0.381 0.013 0.099 0.045 0.184 0.095 0.254z"></path>
<path fill="#d5aa5e" style="fill: var(--color73, #d5aa5e)" d="M25.683 14.063c0.079-0.12 0.079-0.247 0-0.381 0.055-0.287 0.108-0.583 0.159-0.889 0.176-0.274 0.303-0.57 0.381-0.889 0.21 0.421 0.274 0.865 0.19 1.333-0.159 0.403-0.318 0.805-0.476 1.206-0.085-0.129-0.17-0.256-0.254-0.381z"></path>
<path fill="#896837" style="fill: var(--color74, #896837)" d="M6.254 13.746c0.106-0.085 0.212-0.085 0.317 0-0.19 0.201-0.37 0.413-0.54 0.635-0.085-0.254-0.201-0.487-0.349-0.698-0.168-0.429-0.221-0.873-0.159-1.333 0.030-0.145 0.093-0.272 0.19-0.381 0.148 0.339 0.296 0.677 0.444 1.016 0.044 0.256 0.034 0.51-0.032 0.762 0.011 0.042 0.021 0.085 0.032 0.127 0.018-0.058 0.049-0.1 0.095-0.127z"></path>
<path fill="#dbb260" style="fill: var(--color75, #dbb260)" d="M14.19 12.857c-0.033 0.49-0.033 0.977 0 1.46-0.381 0-0.762 0-1.143 0 0-0.021 0-0.042 0-0.063 0.047 0.008 0.089-0.002 0.127-0.032-0.066-0.408-0.066-0.799 0-1.175 0.352 0.046 0.691-0.018 1.016-0.19z"></path>
<path fill="#c8a15e" style="fill: var(--color76, #c8a15e)" d="M20.476 12.857c0.042 0 0.064 0.021 0.064 0.063-0.23 1.76-0.484 3.517-0.762 5.27 0.25-0.063 0.504-0.105 0.762-0.127 0.102-0.017 0.186 0.004 0.254 0.064-0.404-0.003-0.775 0.103-1.111 0.317-0.042 0.042-0.042 0.085 0 0.127 0.152-0.145 0.332-0.23 0.54-0.254 0.027 0.046 0.069 0.078 0.127 0.095-0.091 0.030-0.165 0.082-0.222 0.159-0.032 0.147-0.042 0.295-0.032 0.444-0.341-0.021-0.552-0.19-0.635-0.508 0.040-0.072 0.092-0.135 0.159-0.19 0.306-1.817 0.592-3.637 0.857-5.46z"></path>
<path fill="#dbb261" style="fill: var(--color77, #dbb261)" d="M25.936 15.397c0.057-0.045 0.079-0.108 0.064-0.19 0.046-0.331 0.099-0.669 0.159-1.016 0.22-0.273 0.4-0.569 0.54-0.889 0.048 0.056 0.079 0.119 0.095 0.19 0.042 0.317 0.042 0.635 0 0.952-0.21 0.431-0.432 0.855-0.667 1.27-0.080-0.097-0.144-0.203-0.19-0.317z"></path>
<path fill="#ebe7e0" style="fill: var(--color78, #ebe7e0)" d="M7.079 13.429c0.102 0.032 0.123 0.074 0.064 0.127-0.42 0.24-0.769 0.557-1.048 0.952-0.080 0.27-0.133 0.545-0.159 0.825-0.052-0.306-0.084-0.623-0.095-0.952-0.079-0.179-0.174-0.349-0.286-0.508 0.098-0.020 0.141-0.084 0.127-0.19 0.148 0.211 0.264 0.444 0.349 0.698 0.169-0.222 0.349-0.434 0.54-0.635 0.169-0.106 0.339-0.212 0.508-0.317z"></path>
<path fill="#6c4c25" style="fill: var(--color79, #6c4c25)" d="M10.063 16.286c-0.121-0.097-0.206-0.224-0.254-0.381 0.030-0.393 0.094-0.795 0.19-1.206-0.11-0.149-0.153-0.298-0.127-0.444 0.227-0.39 0.491-0.411 0.794-0.063 0.184 0.327 0.206 0.666 0.063 1.016-0.236 0.352-0.459 0.712-0.667 1.079z"></path>
<path fill="#c6994f" style="fill: var(--color80, #c6994f)" d="M26 15.206c0.015 0.082-0.006 0.145-0.064 0.19-0.127-0.254-0.317-0.444-0.571-0.571-0.288-0.302-0.458-0.661-0.508-1.079 0.001-0.097 0.043-0.129 0.127-0.095 0.201 0.159 0.402 0.317 0.603 0.476 0.279 0.305 0.417 0.664 0.413 1.079z"></path>
<path fill="#705028" style="fill: var(--color23, #705028)" d="M11.714 14.381c-0.107 0.423-0.192 0.856-0.254 1.302 0.007 0.081 0.028 0.165 0.063 0.254-0.165 0.114-0.144 0.199 0.063 0.254-0.014 0.025-0.036 0.036-0.063 0.032-0.211-0.074-0.348-0.222-0.413-0.444-0.035-0.466-0.078-0.932-0.127-1.397-0.127-0.339-0.371-0.54-0.73-0.603 0.162-0.092 0.331-0.166 0.508-0.222 0.259 0.344 0.577 0.619 0.952 0.825z"></path>
<path fill="#b6904d" style="fill: var(--color81, #b6904d)" d="M12.667 14.635c0.082-0.015 0.145 0.006 0.19 0.063-0.039 0.007-0.071 0.028-0.095 0.063-0.092 0.394-0.102 0.785-0.032 1.175-0.042 0.021-0.085 0.042-0.127 0.063 0.058 0.018 0.1 0.049 0.127 0.095-0.109 0.097-0.236 0.16-0.381 0.19-0.064-0.082-0.053-0.166 0.032-0.254 0.021-0.446 0.052-0.89 0.095-1.333 0.082 0.015 0.145-0.006 0.19-0.063z"></path>
<path fill="#8d6a36" style="fill: var(--color82, #8d6a36)" d="M11.714 14.381c0.132 0.064 0.259 0.128 0.381 0.19-0.254 0.021-0.254 0.042 0 0.063-0.023 0.552-0.066 1.102-0.127 1.651-0.106 0-0.212 0-0.317 0-0.063 0.011-0.105-0.010-0.127-0.064 0.028 0.004 0.049-0.006 0.063-0.032-0.207-0.055-0.228-0.14-0.063-0.254-0.035-0.089-0.056-0.173-0.063-0.254 0.062-0.445 0.147-0.879 0.254-1.302z"></path>
<path fill="#c7a159" style="fill: var(--color83, #c7a159)" d="M12.857 14.698c0.169 0 0.339 0 0.508 0-0.027 0.046-0.069 0.078-0.127 0.095 0.1 0.211 0.057 0.39-0.127 0.54 0.008 0.039 0.029 0.060 0.063 0.063 0 0.021 0 0.042 0 0.063-0.016 0.237 0.005 0.47 0.063 0.698-0.022 0.076-0.054 0.076-0.095 0-0.015 0.079-0.046 0.142-0.095 0.19 0.004-0.028-0.006-0.049-0.032-0.064-0.13 0.218-0.288 0.409-0.476 0.571-0.033-0.11-0.097-0.195-0.19-0.254 0.192-0.102 0.372-0.229 0.54-0.381 0.132-0.172 0.174-0.363 0.127-0.571-0.065 0.174-0.16 0.322-0.286 0.444-0.027-0.046-0.069-0.078-0.127-0.095 0.042-0.021 0.085-0.042 0.127-0.063-0.071-0.389-0.060-0.781 0.032-1.175 0.024-0.035 0.056-0.056 0.095-0.063z"></path>
<path fill="#deb462" style="fill: var(--color84, #deb462)" d="M13.365 14.698c0.255-0.011 0.509 0 0.762 0.032 0.058 0.018 0.1 0.049 0.127 0.095-0.032 0.365-0.074 0.746-0.127 1.143-0.348-0.146-0.655-0.358-0.921-0.635-0.025 0.014-0.036 0.036-0.032 0.063-0.034-0.004-0.056-0.025-0.063-0.063 0.184-0.149 0.227-0.329 0.127-0.54 0.058-0.018 0.1-0.049 0.127-0.095z"></path>
<path fill="#93703b" style="fill: var(--color85, #93703b)" d="M5.556 13.873c0.111 0.159 0.207 0.329 0.286 0.508 0.011 0.329 0.043 0.647 0.095 0.952 0 0.042 0.021 0.063 0.064 0.063-0.052 0.104-0.105 0.21-0.159 0.317-0.101-0.224-0.217-0.435-0.349-0.635-0.013-0.404 0.008-0.806 0.064-1.206z"></path>
<path fill="#a27e41" style="fill: var(--color86, #a27e41)" d="M12.095 14.571c0.189 0.029 0.38 0.051 0.571 0.063-0.045 0.057-0.108 0.079-0.19 0.063-0.043 0.443-0.075 0.887-0.095 1.333-0.085 0.087-0.095 0.172-0.032 0.254-0.241 0.077-0.474 0.077-0.698 0 0.106 0 0.212 0 0.317 0 0.061-0.549 0.104-1.099 0.127-1.651-0.254-0.021-0.254-0.042 0-0.063z"></path>
<path fill="#ddbd7c" style="fill: var(--color87, #ddbd7c)" d="M16.984 12.032c0.419 1.337 0.8 2.691 1.143 4.063 0.014 0.075-0.007 0.138-0.064 0.19-0.039-0.008-0.060-0.029-0.064-0.064 0.079-0.020 0.079-0.051 0-0.095-0.123-0.052-0.25-0.083-0.381-0.095 0-0.042 0.021-0.063 0.064-0.063 0.106 0 0.212 0 0.317 0-0.334-1.278-0.694-2.548-1.079-3.81 0.053-0.022 0.074-0.064 0.064-0.127z"></path>
<path fill="#77562a" style="fill: var(--color88, #77562a)" d="M9.873 14.254c-0.026 0.147 0.017 0.295 0.127 0.444-0.097 0.412-0.16 0.814-0.19 1.206 0.048 0.157 0.133 0.284 0.254 0.381-0.224 0.363-0.414 0.744-0.571 1.143-0.065-0.055-0.107-0.13-0.127-0.222 0.082-0.781 0.146-1.554 0.19-2.317 0.040-0.249 0.146-0.46 0.317-0.635z"></path>
<path fill="#ddb362" style="fill: var(--color89, #ddb362)" d="M26 16.794c0.016-0.261 0.016-0.536 0-0.825 0.052 0.135 0.083 0.283 0.095 0.444 0.029-0.214 0.071-0.426 0.127-0.635 0.229-0.377 0.483-0.737 0.762-1.079 0.085 0.489 0.021 0.954-0.19 1.397-0.248 0.306-0.481 0.624-0.698 0.952-0.026-0.089-0.058-0.174-0.095-0.254z"></path>
<path fill="#cb9e52" style="fill: var(--color90, #cb9e52)" d="M25.302 14.889c0.146 0.178 0.304 0.347 0.476 0.508 0.111 0.178 0.185 0.369 0.222 0.571 0.016 0.289 0.016 0.564 0 0.825-0.16-0.371-0.392-0.689-0.698-0.952-0.17-0.341-0.223-0.701-0.159-1.079 0.045 0.056 0.098 0.098 0.159 0.127z"></path>
<path fill="#ece7de" style="fill: var(--color91, #ece7de)" d="M16.222 15.968c0.469-0.017 0.935 0.004 1.397 0.063 0.131 0.012 0.258 0.044 0.381 0.095 0.079 0.044 0.079 0.076 0 0.095-0.103-0.034-0.209-0.055-0.317-0.064-0.134-0.061-0.282-0.083-0.444-0.064-0.339-0.085-0.677-0.085-1.016 0-0.15-0.010-0.298 0-0.444 0.032-0.234 0.063-0.446 0.148-0.635 0.254 0.302-0.281 0.661-0.418 1.079-0.413z"></path>
<path fill="#a07d43" style="fill: var(--color92, #a07d43)" d="M16.222 16.095c0.339-0.085 0.677-0.085 1.016 0-0.085 0-0.169 0-0.254 0 0 0.296 0 0.593 0 0.889-0.33 0.020-0.647-0.001-0.952-0.064 0.244-0.053 0.35-0.212 0.317-0.476-0.003-0.146-0.045-0.262-0.127-0.349z"></path>
<path fill="#9a7641" style="fill: var(--color93, #9a7641)" d="M5.492 15.397c0.223 0.298 0.339 0.637 0.349 1.016 0.012-0.161 0.044-0.309 0.095-0.444 0 0.233 0 0.466 0 0.698-0.012 0.131-0.044 0.258-0.095 0.381-0.148-0.243-0.307-0.475-0.476-0.698 0.039-0.324 0.082-0.641 0.127-0.952z"></path>
<path fill="#c6a056" style="fill: var(--color94, #c6a056)" d="M17.238 16.095c0.162-0.019 0.311 0.002 0.444 0.064-0.067-0.009-0.13 0.001-0.19 0.032 0.061 0.237 0.082 0.48 0.064 0.73-0.184 0.057-0.374 0.078-0.571 0.064 0-0.296 0-0.593 0-0.889 0.085 0 0.169 0 0.254 0z"></path>
<path fill="#e5bc69" style="fill: var(--color95, #e5bc69)" d="M18.127 16.095c0.171 0.022 0.298 0.107 0.381 0.254 0.007 0.153-0.057 0.269-0.19 0.349-0.242 0.119-0.496 0.193-0.762 0.222 0.019-0.25-0.003-0.493-0.064-0.73 0.060-0.031 0.124-0.041 0.19-0.032 0.109 0.008 0.215 0.029 0.317 0.064 0.004 0.034 0.025 0.056 0.064 0.064 0.056-0.052 0.077-0.116 0.064-0.19z"></path>
<path fill="#846232" style="fill: var(--color96, #846232)" d="M9.556 14.889c-0.045 0.764-0.108 1.536-0.19 2.317 0.020 0.093 0.062 0.167 0.127 0.222 0 0.042-0.021 0.064-0.063 0.064-0.073 0.477-0.136 0.963-0.19 1.46-0.096-0.107-0.159-0.234-0.19-0.381 0.097-1.005 0.181-2.021 0.254-3.048 0.049-0.232 0.133-0.443 0.254-0.635z"></path>
<path fill="#73532b" style="fill: var(--color97, #73532b)" d="M15.968 11.524c0.042 0 0.063 0.021 0.063 0.063-0.036 0.424-0.079 0.847-0.127 1.27-0.208 1.056-0.356 2.114-0.444 3.175 0.201-0.097 0.412-0.139 0.635-0.127 0.063-0.011 0.105 0.010 0.127 0.063-0.418-0.005-0.778 0.132-1.079 0.413 0.189-0.106 0.401-0.191 0.635-0.254 0.147-0.032 0.295-0.042 0.444-0.032 0.082 0.087 0.124 0.203 0.127 0.349 0.032 0.264-0.074 0.423-0.317 0.476-0.337-0.015-0.655-0.1-0.952-0.254-0.053-0.119-0.075-0.246-0.063-0.381 0.080-0.062 0.165-0.126 0.254-0.19 0.169-0.949 0.317-1.901 0.444-2.857-0.003-0.058-0.024-0.101-0.063-0.127 0.148-0.424 0.233-0.868 0.254-1.333 0.047-0.077 0.068-0.161 0.063-0.254z"></path>
<path fill="#dcb261" style="fill: var(--color98, #dcb261)" d="M13.175 15.46c0.279 0.28 0.575 0.534 0.889 0.762-0.063 0.064-0.127 0.127-0.19 0.19-0.166-0.119-0.304-0.267-0.413-0.444-0.011 0.021-0.021 0.042-0.032 0.064 0.149 0.256 0.297 0.51 0.444 0.762-0.047-0.008-0.089 0.002-0.127 0.032 0.056 0.045 0.098 0.098 0.127 0.159 0.068 0.35 0.216 0.689 0.444 1.016-0.287 0.102-0.583 0.145-0.889 0.127-0.127 0-0.254 0-0.381 0-0.029-0.061-0.071-0.114-0.127-0.159 0.060-0.506 0.102-1.003 0.127-1.492 0-0.042 0-0.085 0-0.127 0.049-0.048 0.081-0.112 0.095-0.19 0.042 0.076 0.073 0.076 0.095 0-0.059-0.228-0.080-0.461-0.063-0.698z"></path>
<path fill="#a27f46" style="fill: var(--color99, #a27f46)" d="M12.349 16.603c0.094 0.059 0.157 0.144 0.19 0.254-0.321 0.178-0.66 0.263-1.016 0.254 0.193-0.068 0.383-0.142 0.571-0.222-0.236-0.011-0.468-0.043-0.698-0.095-0.013-0.037-0.034-0.069-0.063-0.095 0.339-0.030 0.678-0.062 1.016-0.095z"></path>
<path fill="#b79150" style="fill: var(--color100, #b79150)" d="M5.048 16.413c0.13 0.106 0.256 0.212 0.381 0.317-0.2 0.327-0.157 0.634 0.127 0.921-0.035 0.024-0.056 0.056-0.064 0.095-0.171-0.11-0.298-0.258-0.381-0.444 0.056 0.008 0.098-0.013 0.127-0.064-0.105-0.262-0.168-0.537-0.19-0.825z"></path>
<path fill="#dcb261" style="fill: var(--color98, #dcb261)" d="M25.873 18.064c0-0.381 0-0.762 0-1.143 0.052 0.242 0.084 0.496 0.095 0.762 0.071-0.268 0.177-0.522 0.317-0.762 0.296-0.212 0.55-0.466 0.762-0.762 0.096 0.527-0.031 0.993-0.381 1.397-0.296 0.212-0.55 0.466-0.762 0.762-0.031-0.082-0.042-0.167-0.032-0.254z"></path>
<path fill="#ede7da" style="fill: var(--color101, #ede7da)" d="M18.508 16.349c0.085 0.127 0.085 0.254 0 0.381 0.004-0.028-0.006-0.049-0.032-0.064-0.157 0.137-0.337 0.232-0.54 0.286-0.285 0.048-0.56 0.101-0.825 0.159-0.064 0-0.127 0-0.19 0-0.19 0-0.381 0-0.571 0-0.396-0.035-0.777-0.131-1.143-0.286-0.056-0.045-0.098-0.098-0.127-0.159 0.298 0.154 0.615 0.238 0.952 0.254 0.305 0.063 0.623 0.084 0.952 0.064 0.197 0.015 0.388-0.006 0.571-0.064 0.266-0.029 0.52-0.103 0.762-0.222 0.134-0.080 0.197-0.197 0.19-0.349z"></path>
<path fill="#715129" style="fill: var(--color102, #715129)" d="M15.079 16.667c0.029 0.061 0.071 0.114 0.127 0.159 0.366 0.155 0.747 0.25 1.143 0.286-0.145 0.087-0.187 0.203-0.127 0.349-0.038 0.029-0.080 0.040-0.127 0.032-0.462-0.114-0.822-0.368-1.079-0.762 0-0.042 0.021-0.064 0.063-0.064z"></path>
<path fill="#ad8a4c" style="fill: var(--color103, #ad8a4c)" d="M16.921 17.111c0.064 0 0.127 0 0.19 0 0.061 0.134 0.083 0.282 0.064 0.444-0.305 0.079-0.601 0.079-0.889 0 0.171 0.010 0.34-0 0.508-0.032-0.058-0.108-0.079-0.224-0.064-0.349 0.082 0.015 0.145-0.006 0.19-0.064z"></path>
<path fill="#947139" style="fill: var(--color104, #947139)" d="M16.349 17.111c0.19 0 0.381 0 0.571 0-0.045 0.057-0.108 0.079-0.19 0.064-0.015 0.125 0.006 0.241 0.064 0.349-0.168 0.032-0.337 0.042-0.508 0.032-0.082 0.015-0.145-0.006-0.19-0.064 0.047 0.008 0.089-0.002 0.127-0.032-0.060-0.146-0.018-0.262 0.127-0.349z"></path>
<path fill="#bf9a54" style="fill: var(--color105, #bf9a54)" d="M13.048 16.476c-0.025 0.489-0.067 0.986-0.127 1.492 0.056 0.045 0.098 0.098 0.127 0.159-0.19 0-0.381 0-0.571 0-0.075 0.014-0.138-0.007-0.19-0.064 0.226-0.262 0.364-0.558 0.413-0.889-0.162 0.332-0.374 0.628-0.635 0.889 0.030-0.116 0.020-0.221-0.032-0.317 0.027-0.046 0.069-0.078 0.127-0.095-0.044-0.107-0.065-0.202-0.063-0.286 0.399-0.208 0.716-0.505 0.952-0.889z"></path>
<path fill="#95723e" style="fill: var(--color106, #95723e)" d="M5.429 16.73c0.277 0.256 0.457 0.574 0.54 0.952 0.029-0.038 0.040-0.080 0.032-0.127 0.042 0.169 0.085 0.339 0.127 0.508 0.002 0.080-0.029 0.143-0.095 0.19-0.172-0.182-0.351-0.352-0.54-0.508 0.007-0.039 0.028-0.071 0.064-0.095-0.284-0.287-0.327-0.594-0.127-0.921z"></path>
<path fill="#e0b765" style="fill: var(--color107, #e0b765)" d="M27.714 12.603c0.796 2.822 0.605 5.573-0.571 8.254-0.040-0.026-0.061-0.069-0.064-0.127 0.022-0.082 0.065-0.135 0.127-0.159-0.078-0.088-0.142-0.183-0.19-0.286 0.858-2.46 0.985-4.957 0.381-7.492 0.051-0.142 0.157-0.206 0.317-0.19z"></path>
<path fill="#bc9652" style="fill: var(--color108, #bc9652)" d="M4.349 12.476c0.001 0.589-0.042 1.181-0.127 1.778-0.097 1.188-0.076 2.373 0.064 3.556-0.042 0.55-0.085 1.101-0.127 1.651-0.084-0.335-0.147-0.673-0.19-1.016 0.084-1.591 0.105-3.178 0.064-4.762 0.067-0.419 0.172-0.821 0.317-1.206z"></path>
<path fill="#f3ece1" style="fill: var(--color109, #f3ece1)" d="M20.794 18.127c0.296 0 0.593 0 0.889 0 0.289 0.007 0.565 0.071 0.825 0.19-0.021 0.021-0.042 0.042-0.064 0.064-0.414-0.123-0.837-0.186-1.27-0.19-0.332-0.004-0.65 0.039-0.952 0.127-0.208 0.024-0.387 0.109-0.54 0.254-0.042-0.042-0.042-0.085 0-0.127 0.336-0.214 0.707-0.32 1.111-0.317z"></path>
<path fill="#c79b50" style="fill: var(--color110, #c79b50)" d="M25.175 17.238c0.197 0.273 0.356 0.569 0.476 0.889 0.028 0.341 0.028 0.68 0 1.016 0.054-0.134 0.107-0.261 0.159-0.381 0.076 0.023 0.118 0.076 0.127 0.159-0.080 0.12-0.080 0.236 0 0.349-0.146 0.114-0.283 0.241-0.413 0.381-0.062-0.556-0.242-1.064-0.54-1.524-0.026-0.328 0.016-0.646 0.127-0.952 0.039 0.008 0.060 0.029 0.064 0.064z"></path>
<path fill="#eae7e0" style="fill: var(--color111, #eae7e0)" d="M6.889 18.317c-0.011 0.063 0.010 0.105 0.064 0.127-0.17 0.352-0.276 0.722-0.317 1.111 0.029 0.317 0.082 0.624 0.159 0.921-0.12-0.405-0.364-0.702-0.73-0.889-0.085-0.064-0.169-0.127-0.254-0.19 0.047 0.008 0.089-0.002 0.127-0.032-0.094-0.045-0.136-0.119-0.127-0.222 0.187 0.103 0.357 0.23 0.508 0.381 0.018 0.050 0.050 0.092 0.095 0.127 0.041-0.492 0.199-0.937 0.476-1.333z"></path>
<path fill="#b68840" style="fill: var(--color112, #b68840)" d="M21.175 18.19c-0.045 0.057-0.108 0.079-0.19 0.064 0.019 0.271-0.002 0.535-0.064 0.794 0.058 0.018 0.1 0.049 0.127 0.095-0.326 0.004-0.644-0.038-0.952-0.127-0.010-0.15 0-0.298 0.032-0.444 0.057-0.076 0.131-0.129 0.222-0.159-0.058-0.018-0.1-0.049-0.127-0.095 0.303-0.088 0.62-0.131 0.952-0.127z"></path>
<path fill="#8d591e" style="fill: var(--color113, #8d591e)" d="M22.444 18c0.021 0 0.042 0 0.064 0-0.009 0.067 0.001 0.13 0.032 0.19 0.171 0.069 0.308 0.175 0.413 0.317 0.003 0.219-0.103 0.357-0.317 0.413-0.514 0.182-1.043 0.256-1.587 0.222-0.027-0.046-0.069-0.078-0.127-0.095 0.061-0.258 0.082-0.523 0.064-0.794 0.082 0.015 0.145-0.006 0.19-0.064 0.433 0.004 0.856 0.068 1.27 0.19 0.021-0.021 0.042-0.042 0.064-0.064-0.261-0.12-0.536-0.183-0.825-0.19 0.022-0.053 0.064-0.074 0.127-0.064 0.184-0.012 0.364 0.010 0.54 0.064 0.065-0.021 0.097-0.064 0.095-0.127z"></path>
<path fill="#f5efdf" style="fill: var(--color114, #f5efdf)" d="M12.476 18.127c0.19 0 0.381 0 0.571 0 0.127 0 0.254 0 0.381 0-0.063 0.042-0.127 0.085-0.19 0.127-0.129-0.010-0.256 0-0.381 0.032 0.338 0.032 0.677 0.042 1.016 0.032 0.022 0.053 0.064 0.074 0.127 0.064-0.022 0.053-0.064 0.074-0.127 0.064-0.297-0.011-0.593 0-0.889 0.032 0.362 0.143 0.721 0.174 1.079 0.095 0.338-0.119 0.38-0.066 0.127 0.159-0.123 0.052-0.25 0.083-0.381 0.095-0.465-0.043-0.888-0.191-1.27-0.444 0.056 0.008 0.098-0.013 0.127-0.064-0.095-0.041-0.158-0.104-0.19-0.19z"></path>
<path fill="#a48044" style="fill: var(--color115, #a48044)" d="M12.476 18.635c-0.063 0-0.127 0-0.19 0-0.035 0.699-0.078 1.397-0.127 2.095-0.079-0.058-0.163-0.069-0.254-0.032-0.139 0.139-0.277 0.276-0.413 0.413-0.147-0.058-0.19-0.163-0.127-0.317 0.128-0.264 0.266-0.518 0.413-0.762-0.028-0.102-0.092-0.177-0.19-0.222 0.127-0.198 0.191-0.42 0.19-0.667 0.008-0.047-0.002-0.089-0.032-0.127-0.127 0.127-0.254 0.254-0.381 0.381-0.011-0.021-0.021-0.042-0.032-0.064 0.182-0.342 0.309-0.702 0.381-1.079 0.337-0.029 0.591 0.098 0.762 0.381z"></path>
<path fill="#bc9049" style="fill: var(--color116, #bc9049)" d="M14.444 18.762c-0.063 0.021-0.106 0.064-0.127 0.127-0.027 0.046-0.069 0.078-0.127 0.095-0.168 0.032-0.337 0.042-0.508 0.032 0.067-0.046 0.109-0.109 0.127-0.19 0.131-0.012 0.258-0.044 0.381-0.095 0.254-0.224 0.211-0.277-0.127-0.159-0.077-0.027-0.14-0.070-0.19-0.127 0.063 0.011 0.105-0.010 0.127-0.064 0.133 0.012 0.26-0.010 0.381-0.064 0.062 0.142 0.083 0.291 0.063 0.444z"></path>
<path fill="#e9dfcc" style="fill: var(--color117, #e9dfcc)" d="M19.46 18.508c0.083 0.318 0.294 0.487 0.635 0.508 0.309 0.089 0.626 0.131 0.952 0.127 0.544 0.034 1.074-0.040 1.587-0.222 0.215-0.056 0.321-0.194 0.317-0.413 0.085 0.127 0.085 0.254 0 0.381-0.599 0.276-1.234 0.403-1.905 0.381-0.127 0-0.254 0-0.381 0-0.384-0.067-0.755-0.194-1.111-0.381-0.025 0.014-0.036 0.036-0.032 0.064-0.129-0.137-0.15-0.285-0.064-0.444z"></path>
<path fill="#866639" style="fill: var(--color118, #866639)" d="M6.317 18.127c0.013 0.469 0.013 0.934 0 1.397-0.151-0.151-0.321-0.278-0.508-0.381 0-0.042-0.021-0.064-0.064-0.064-0.011-0.234 0-0.467 0.032-0.698 0.024-0.035 0.056-0.056 0.095-0.064 0.148 0.168 0.264 0.358 0.349 0.571 0.011-0.266 0.043-0.52 0.095-0.762z"></path>
<path fill="#c0934a" style="fill: var(--color119, #c0934a)" d="M24.857 18.381c0.183 0.217 0.321 0.471 0.413 0.762 0.038 0.409 0.017 0.811-0.064 1.206 0.077-0.24 0.214-0.43 0.413-0.571-0.083 0.128-0.083 0.318 0 0.571 0.064 0 0.127 0 0.19 0-0.271 0.153-0.535 0.322-0.794 0.508-0.011-0.245-0.043-0.478-0.095-0.698-0.223-0.586-0.244-1.178-0.064-1.778z"></path>
<path fill="#bf9852" style="fill: var(--color120, #bf9852)" d="M12.476 18.635c0.143 0.040 0.249 0.124 0.317 0.254-0.046 0.027-0.078 0.069-0.095 0.127-0.061 0.686-0.114 1.364-0.159 2.032-0.067-0.13-0.173-0.215-0.317-0.254 0-0.042-0.021-0.064-0.063-0.064 0.049-0.698 0.092-1.396 0.127-2.095 0.063 0 0.127 0 0.19 0z"></path>
<path fill="#735229" style="fill: var(--color121, #735229)" d="M7.016 20.222c-0.052 0.199-0.084 0.411-0.095 0.635-0.275-0.227-0.582-0.397-0.921-0.508-0.042-0.064-0.085-0.127-0.127-0.19 0.073-0.018 0.115-0.071 0.127-0.159 0.060-0.147 0.081-0.285 0.064-0.413 0.367 0.187 0.61 0.484 0.73 0.889-0.076-0.297-0.129-0.604-0.159-0.921 0.041-0.389 0.147-0.76 0.317-1.111 0.068-0.076 0.121-0.055 0.159 0.064 0.141 0.581 0.109 1.152-0.095 1.714z"></path>
<path fill="#d5ad5f" style="fill: var(--color122, #d5ad5f)" d="M12.794 18.889c0.274 0.137 0.549 0.274 0.825 0.413 0.168 0.032 0.337 0.042 0.508 0.032-0.092 0.051-0.198 0.083-0.317 0.095 0.040 0.151 0.103 0.288 0.19 0.413-0.042 0-0.063 0.021-0.063 0.064-0.098 0.020-0.141 0.084-0.127 0.19-0.341-0.525-0.383-0.504-0.127 0.064-0.049 0.165-0.070 0.334-0.063 0.508-0.211-0.336-0.455-0.653-0.73-0.952 0.298 0.575 0.584 1.168 0.857 1.778-0.046 0.027-0.078 0.069-0.095 0.127-0.021-0.042-0.042-0.085-0.063-0.127-0.032 0.147-0.042 0.295-0.032 0.444-0.22-0.398-0.443-0.8-0.667-1.206 0.118 0.545 0.277 1.085 0.476 1.619-0.021 0.032-0.042 0.064-0.063 0.095-0.423-0.233-0.847-0.466-1.27-0.698-0.069-0.055-0.079-0.118-0.032-0.19 0.136-0.179 0.316-0.264 0.54-0.254 0-0.085 0-0.169 0-0.254 0.045-0.668 0.098-1.345 0.159-2.032 0.018-0.058 0.049-0.1 0.095-0.127z"></path>
<path fill="#a27231" style="fill: var(--color123, #a27231)" d="M20.667 19.27c0.127 0 0.254 0 0.381 0 0.056 0.12 0.14 0.257 0.254 0.413 0.082 0.031 0.167 0.042 0.254 0.032-0.288 0.079-0.584 0.079-0.889 0-0-0.13-0.043-0.267-0.127-0.413 0.038-0.029 0.080-0.040 0.127-0.032z"></path>
<path fill="#71522b" style="fill: var(--color124, #71522b)" d="M5.936 20.476c0.342 0.157 0.68 0.326 1.016 0.508 0.182 0.13 0.32 0.299 0.413 0.508 0.042 0.076 0.073 0.076 0.095 0-0.407-0.652-0.418-1.308-0.032-1.968 0.379 0.563 0.453 1.166 0.222 1.81 0.024 0.224 0.034 0.446 0.032 0.667-0.467-0.198-0.922-0.42-1.365-0.667-0.253-0.243-0.443-0.528-0.571-0.857 0.059-0.067 0.122-0.067 0.19 0z"></path>
<path fill="#e1ba69" style="fill: var(--color125, #e1ba69)" d="M8.794 19.968c0.098 0.020 0.141 0.084 0.127 0.19-0.189 0.194-0.147 0.299 0.127 0.317-0.045 0.057-0.108 0.079-0.19 0.064 0 0.085 0 0.169 0 0.254-0.213-0.064-0.319-0.212-0.317-0.444-0.008-0.198 0.077-0.325 0.254-0.381z"></path>
<path fill="#b08c4b" style="fill: var(--color126, #b08c4b)" d="M8.794 19.968c0.204-0.107 0.374-0.065 0.508 0.127 0.012 0.258-0.009 0.512-0.063 0.762-0.119-0.053-0.246-0.075-0.381-0.064 0-0.085 0-0.169 0-0.254 0.082 0.015 0.145-0.006 0.19-0.064 0.070-0.070 0.080-0.155 0.032-0.254-0.043-0.048-0.095-0.069-0.159-0.064 0.014-0.107-0.029-0.17-0.127-0.19z"></path>
<path fill="#cda155" style="fill: var(--color127, #cda155)" d="M27.016 20.286c0.049 0.102 0.112 0.198 0.19 0.286-0.062 0.024-0.105 0.077-0.127 0.159 0.003 0.058 0.024 0.101 0.064 0.127-0.255 0.684-0.594 1.319-1.016 1.905 0.085-0.233 0.085-0.466 0-0.698 0.298-0.595 0.594-1.188 0.889-1.778z"></path>
<path fill="#a47432" style="fill: var(--color128, #a47432)" d="M23.968 22.127c-0.089 0.155-0.195 0.303-0.317 0.444 0.148-0.039 0.276-0.145 0.381-0.317 0.064-0.042 0.127-0.085 0.19-0.127 0.057-0.039 0.12-0.060 0.19-0.064 0.196 0.272 0.133 0.473-0.19 0.603 0.035 0.024 0.056 0.056 0.064 0.095-0.331 0.037-0.648 0.122-0.952 0.254 0.157-0.536 0.231-1.087 0.222-1.651 0.083-0.294 0.231-0.548 0.444-0.762 0.134 0.513 0.124 1.021-0.032 1.524z"></path>
<path fill="#6c4d26" style="fill: var(--color129, #6c4d26)" d="M9.429 17.492c0.409 1.004 0.8 2.020 1.175 3.048 0.22 0.163 0.411 0.353 0.571 0.571 0.011 0.053 0.021 0.106 0.032 0.159-0.012 0.087-0.054 0.14-0.127 0.159-0.059-0.125-0.143-0.147-0.254-0.064-0.051 0.1-0.073 0.206-0.063 0.317-0.028 0.149-0.091 0.276-0.19 0.381-0.318-0.080-0.583-0.249-0.794-0.508 0.042-0.423 0.085-0.847 0.127-1.27-0.256-0.428-0.479-0.873-0.667-1.333 0.054-0.497 0.118-0.984 0.19-1.46z"></path>
<path fill="#b48643" style="fill: var(--color130, #b48643)" d="M24.667 21.365c0.040 0.146 0.125 0.252 0.254 0.317-0.228 0.072-0.44 0.177-0.635 0.317-0.039-0.008-0.060-0.029-0.064-0.064 0.043-0.632 0.054-1.267 0.032-1.905 0.061-0.183 0.145-0.352 0.254-0.508 0.357 0.608 0.368 1.222 0.032 1.841 0.030 0.061 0.072 0.061 0.127 0z"></path>
<path fill="#6c4c26" style="fill: var(--color131, #6c4c26)" d="M12.222 20.794c0.062 0.084 0.125 0.168 0.19 0.254-0.527 0.228-0.739 0.63-0.635 1.206-0.58 0.112-0.834 0.451-0.762 1.016-0.337 0.091-0.496-0.036-0.476-0.381 0.172-0.27 0.352-0.535 0.54-0.794-0.176-0.162-0.228-0.363-0.159-0.603 0.043-0.048 0.095-0.069 0.159-0.064 0.074 0.122 0.18 0.175 0.317 0.159 0.177-0.238 0.346-0.481 0.508-0.73 0.098-0.060 0.204-0.082 0.317-0.064z"></path>
<path fill="#6c4d27" style="fill: var(--color132, #6c4d27)" d="M8.095 22.381c-0.276-0.567-0.329-1.16-0.159-1.778 0.196 0.201 0.344 0.433 0.444 0.698 0.021 0.381 0.042 0.762 0.063 1.143 0.017 0.181 0.070 0.35 0.159 0.508-0.665-0.002-1.268-0.213-1.81-0.635-0.129-0.161-0.245-0.33-0.349-0.508 0.021-0.021 0.042-0.042 0.064-0.064 0.277 0.146 0.574 0.22 0.889 0.222 0.255 0.106 0.488 0.244 0.698 0.413z"></path>
<path fill="#bd9048" style="fill: var(--color133, #bd9048)" d="M26.127 22.064c0.085 0.233 0.085 0.466 0 0.698-0.155 0.246-0.324 0.479-0.508 0.698 0.020-0.11 0.031-0.215 0.032-0.317-0.058 0.053-0.1 0.116-0.127 0.19-0.024-0.092-0.077-0.155-0.159-0.19 0.256-0.361 0.51-0.721 0.762-1.079z"></path>
<path fill="#876534" style="fill: var(--color134, #876534)" d="M12.286 22c0.158 0.069 0.307 0.153 0.444 0.254-0.060 0.357-0.081 0.706-0.063 1.048 0.080 0.026 0.122 0.079 0.127 0.159-0.277-0.117-0.531-0.265-0.762-0.444 0.063 0.005 0.116-0.016 0.159-0.064 0.014-0.323 0.046-0.64 0.095-0.952z"></path>
<path fill="#936126" style="fill: var(--color135, #936126)" d="M23.206 22.889c-0.111 0.186-0.238 0.366-0.381 0.54 0.183-0.091 0.373-0.187 0.571-0.286 0.107 0.025 0.212 0.057 0.317 0.095-0.134 0.031-0.155 0.105-0.064 0.222-0.020 0.073-0.062 0.126-0.127 0.159 0.058 0.018 0.1 0.049 0.127 0.095-0.401 0.059-0.803 0.122-1.206 0.19-0.039-0.008-0.060-0.029-0.064-0.064 0.105-0.199 0.179-0.41 0.222-0.635-0.027-0.645 0.206-1.174 0.698-1.587 0.059 0.432 0.028 0.856-0.095 1.27z"></path>
<path fill="#77572c" style="fill: var(--color136, #77572c)" d="M4.921 20.159c0.314 0.797 0.695 1.559 1.143 2.286-0.034 0.004-0.056 0.025-0.064 0.064 0.097 0.108 0.182 0.224 0.254 0.349-0.039 0.124-0.081 0.24-0.127 0.349-0.572-0.634-1.016-1.354-1.333-2.159 0.006-0.245 0.016-0.499 0.032-0.762 0.018-0.058 0.049-0.1 0.095-0.127z"></path>
<path fill="#6e4d26" style="fill: var(--color137, #6e4d26)" d="M12.286 22c-0.050 0.312-0.081 0.63-0.095 0.952-0.043 0.048-0.095 0.069-0.159 0.064-0.24-0.123-0.473-0.261-0.698-0.413 0.168-0.13 0.359-0.204 0.571-0.222-0.020-0.195 0.001-0.386 0.063-0.571 0.118 0.048 0.224 0.112 0.317 0.19z"></path>
<path fill="#9e7b41" style="fill: var(--color138, #9e7b41)" d="M12.73 22.254c0.193 0.075 0.362 0.181 0.508 0.317-0.078 0.034-0.152 0.076-0.222 0.127-0.049 0.302-0.039 0.598 0.032 0.889-0.105-0.010-0.19-0.052-0.254-0.127-0.005-0.079-0.047-0.132-0.127-0.159-0.018-0.342 0.003-0.691 0.063-1.048z"></path>
<path fill="#bd914b" style="fill: var(--color139, #bd914b)" d="M13.746 21.492c0.234 0.466 0.393 0.953 0.476 1.46-0.071-0.051-0.145-0.093-0.222-0.127-0.181-0.278-0.33-0.575-0.444-0.889-0.010-0.15 0-0.298 0.032-0.444 0.021 0.042 0.042 0.085 0.063 0.127 0.018-0.058 0.049-0.1 0.095-0.127z"></path>
<path fill="#cea75b" style="fill: var(--color140, #cea75b)" d="M13.556 22.762c0.106 0.042 0.212 0.085 0.317 0.127 0.076 0.049 0.139 0.113 0.19 0.19-0.053 0.053-0.032 0.106 0.063 0.159-0.024 0.269-0.087 0.523-0.19 0.762 0.135 0.022 0.156 0.075 0.063 0.159-0.235-0.096-0.447-0.223-0.635-0.381 0.018-0.361 0.082-0.7 0.19-1.016z"></path>
<path fill="#926024" style="fill: var(--color141, #926024)" d="M22.254 23.714c-0.176 0.208-0.366 0.409-0.571 0.603 0.245-0.101 0.499-0.206 0.762-0.317 0.402-0.042 0.804-0.042 1.206 0-0.658 0.651-1.441 0.852-2.349 0.603 0.235-0.369 0.383-0.771 0.444-1.206 0.155-0.378 0.399-0.696 0.73-0.952-0.026 0.428-0.1 0.851-0.222 1.27z"></path>
<path fill="#a77737" style="fill: var(--color142, #a77737)" d="M23.651 23.714c-0.027-0.046-0.069-0.078-0.127-0.095 0.064-0.033 0.107-0.086 0.127-0.159-0.091-0.117-0.070-0.191 0.064-0.222-0.105-0.039-0.211-0.070-0.317-0.095 0.393-0.088 0.796-0.173 1.206-0.254 0.021 0.021 0.042 0.042 0.064 0.064-0.25 0.377-0.588 0.631-1.016 0.762z"></path>
<path fill="#6d4e28" style="fill: var(--color143, #6d4e28)" d="M9.556 23.841c0 0.042-0.021 0.064-0.063 0.064-0.884 0.087-1.603-0.21-2.159-0.889 0.641-0.108 1.223 0.040 1.746 0.444-0.211-0.296-0.359-0.635-0.444-1.016-0.042-0.296-0.042-0.593 0-0.889 0.477 0.445 0.709 0.996 0.698 1.651 0.043 0.225 0.117 0.436 0.222 0.635z"></path>
<path fill="#826236" style="fill: var(--color144, #826236)" d="M9.238 24.603c0.403 0.011 0.805 0 1.206-0.032-0.077-0.066-0.14-0.14-0.19-0.222-0.127-0.169-0.275-0.317-0.444-0.444-0.24-0.433-0.335-0.899-0.286-1.397 0.169 0.169 0.339 0.339 0.508 0.508 0.176 0.593 0.388 1.165 0.635 1.714-0.482-0.041-0.959-0.084-1.429-0.127z"></path>
<path fill="#ddb260" style="fill: var(--color145, #ddb260)" d="M14.063 23.079c0.36 0.159 0.698 0.349 1.016 0.571-0.063 0.348-0.084 0.707-0.063 1.079-0.36-0.159-0.698-0.349-1.016-0.571 0.092-0.084 0.071-0.137-0.063-0.159 0.103-0.239 0.167-0.493 0.19-0.762-0.095-0.053-0.116-0.106-0.063-0.159z"></path>
<path fill="#ded8ce" style="fill: var(--color146, #ded8ce)" d="M9.556 23.841c0.046 0.027 0.078 0.069 0.095 0.127 0.043-0.048 0.095-0.069 0.159-0.064 0.169 0.127 0.317 0.275 0.444 0.444-0.271-0.146-0.546-0.273-0.825-0.381 0.042 0 0.063-0.021 0.063-0.064 0.042 0 0.063-0.021 0.063-0.064z"></path>
<path fill="#916e3b" style="fill: var(--color147, #916e3b)" d="M11.079 23.841c-0.062 0.162-0.126 0.331-0.19 0.508 0.067 0.081 0.131 0.155 0.19 0.222-0.035 0.024-0.056 0.056-0.063 0.095-0.082-0.050-0.156-0.114-0.222-0.19-0.181-0.343-0.319-0.703-0.413-1.079 0.032-0.065 0.074-0.075 0.127-0.032 0.218 0.13 0.409 0.288 0.571 0.476z"></path>
<path fill="#ae7f3b" style="fill: var(--color148, #ae7f3b)" d="M25.365 23.143c0.082 0.035 0.135 0.099 0.159 0.19 0.027-0.074 0.069-0.138 0.127-0.19-0.001 0.102-0.012 0.208-0.032 0.317-0.232 0.317-0.486 0.613-0.762 0.889-0.027-0.046-0.069-0.078-0.127-0.095 0.030-0.082 0.030-0.178 0-0.286 0.21-0.274 0.422-0.549 0.635-0.825z"></path>
<path fill="#c6994d" style="fill: var(--color149, #c6994d)" d="M15.079 23.651c0.373 0.197 0.732 0.408 1.079 0.635-0.108 0.012-0.192 0.065-0.254 0.159 0.056 0.24 0.077 0.473 0.063 0.698-0.058 0.018-0.1 0.049-0.127 0.095-0.288-0.154-0.563-0.324-0.825-0.508-0.020-0.372 0.001-0.732 0.063-1.079z"></path>
<path fill="#9e6e2f" style="fill: var(--color150, #9e6e2f)" d="M24.73 23.968c0.030 0.108 0.030 0.203 0 0.286 0.058 0.018 0.1 0.049 0.127 0.095-0.254 0.296-0.529 0.571-0.825 0.825-0.105-0.172-0.063-0.299 0.127-0.381-0.035-0.074-0.056-0.137-0.064-0.19 0.19-0.233 0.402-0.444 0.635-0.635z"></path>
<path fill="#ab7a36" style="fill: var(--color151, #ab7a36)" d="M16.159 24.286c0.369 0.216 0.75 0.417 1.143 0.603 0.254 0 0.508 0 0.762 0-0.076 0.087-0.161 0.161-0.254 0.222-0.143-0.072-0.291-0.104-0.444-0.095 0.068 0.043 0.111 0.106 0.127 0.19-0.136 0.19-0.157 0.392-0.064 0.603-0.004 0.079-0.035 0.142-0.095 0.19-0.062-0.081-0.115-0.081-0.159 0-0.085-0.042-0.169-0.085-0.254-0.127-0.167-0.102-0.336-0.207-0.508-0.317-0.199-0.089-0.389-0.195-0.571-0.317 0.027-0.046 0.069-0.078 0.127-0.095 0.014-0.226-0.008-0.459-0.063-0.698 0.062-0.094 0.146-0.147 0.254-0.159z"></path>
<path fill="#ac7c3a" style="fill: var(--color152, #ac7c3a)" d="M20.222 24.667c-0.203 0.362-0.5 0.626-0.889 0.794 0.293-0.030 0.589-0.030 0.889 0 0.301 0.155 0.618 0.26 0.952 0.317-0.34 0.209-0.711 0.305-1.111 0.286-0.43-0.034-0.843-0.14-1.238-0.317-0.042 0-0.064-0.021-0.064-0.064 0.125-0.156 0.262-0.305 0.413-0.444 0.261-0.643 0.716-1.055 1.365-1.238-0.132 0.211-0.238 0.433-0.317 0.667z"></path>
<path fill="#9e6d2f" style="fill: var(--color153, #9e6d2f)" d="M21.492 23.333c0.006 0.75-0.332 1.311-1.016 1.683 0.259-0.104 0.535-0.178 0.825-0.222 0.396 0.091 0.798 0.144 1.206 0.159-0.366 0.338-0.799 0.518-1.302 0.54-0.392-0.074-0.783-0.148-1.175-0.222 0.129-0.122 0.235-0.26 0.317-0.413 0.169-0.676 0.55-1.184 1.143-1.524z"></path>
<path fill="#6c4d27" style="fill: var(--color132, #6c4d27)" d="M6.064 22.444c0.82 1.243 1.836 2.302 3.048 3.175 0.004 0.133 0.067 0.228 0.19 0.286-0.094 0.045-0.136 0.119-0.127 0.222-1.202-0.779-2.218-1.753-3.048-2.921 0.046-0.109 0.088-0.226 0.127-0.349-0.072-0.125-0.157-0.242-0.254-0.349 0.008-0.039 0.029-0.060 0.064-0.064z"></path>
<path fill="#a17e44" style="fill: var(--color154, #a17e44)" d="M11.079 23.841c0.209 0.34 0.389 0.699 0.54 1.079 0.103 0.111 0.198 0.227 0.286 0.349-0.193 0.023-0.384 0.055-0.571 0.095-0.17-0.119-0.149-0.214 0.063-0.286-0.035-0.024-0.056-0.056-0.063-0.095-0.094-0.12-0.199-0.226-0.317-0.317 0.007-0.039 0.028-0.071 0.063-0.095-0.060-0.067-0.123-0.142-0.19-0.222 0.065-0.177 0.128-0.346 0.19-0.508z"></path>
<path fill="#d7af61" style="fill: var(--color155, #d7af61)" d="M13.556 26.444c-0.079-0.214-0.079-0.425 0-0.635 0.192 0.010 0.382-0 0.571-0.032-0.773-0.15-1.26-0.584-1.46-1.302 0.291 0.082 0.566 0.199 0.825 0.349 0.277 0.256 0.531 0.531 0.762 0.825 0.138 0.101 0.286 0.185 0.444 0.254-0.392 0.164-0.773 0.344-1.143 0.54z"></path>
<path fill="#dfb664" style="fill: var(--color156, #dfb664)" d="M16.032 25.936c0.136 0.077 0.284 0.13 0.444 0.159-0.111 0.022-0.217 0.054-0.317 0.095-0.1-0.062-0.205-0.072-0.317-0.032-0.169 0.127-0.339 0.254-0.508 0.381-0.506 0.293-1.035 0.357-1.587 0.19 0.339-0.212 0.677-0.423 1.016-0.635 0.249-0.070 0.503-0.112 0.762-0.127-0.291-0.036-0.566-0.12-0.825-0.254-0.303-0.245-0.578-0.52-0.825-0.825 0.661-0.026 1.19 0.228 1.587 0.762 0.174 0.129 0.365 0.225 0.571 0.286z"></path>
<path fill="#b6904e" style="fill: var(--color157, #b6904e)" d="M11.397 24.032c0.004-0.034 0.025-0.056 0.063-0.064 0.633 0.263 1.088 0.707 1.365 1.333 0.14 0.161 0.299 0.299 0.476 0.413-0.508 0.17-1.027 0.286-1.556 0.349-0.35 0.042-0.657-0.054-0.921-0.286 0.279-0.096 0.554-0.202 0.825-0.317 0.389-0.042 0.77-0.020 1.143 0.064-0.335-0.103-0.621-0.282-0.857-0.54-0.183-0.323-0.362-0.641-0.54-0.952z"></path>
<path fill="#ca9e52" style="fill: var(--color158, #ca9e52)" d="M16.413 25.556c0.172 0.11 0.341 0.216 0.508 0.317-0.192 0.019-0.382 0.051-0.571 0.095 0.375 0.007 0.735 0.082 1.079 0.222 0.216 0.225 0.47 0.405 0.762 0.54-0.474 0.141-0.94 0.12-1.397-0.064-0.205-0.174-0.417-0.333-0.635-0.476 0.101-0.041 0.207-0.073 0.317-0.095-0.161-0.028-0.309-0.081-0.444-0.159 0.118-0.076 0.234-0.16 0.349-0.254 0.029-0.038 0.040-0.080 0.032-0.127z"></path>
<path fill="#8d5a1f" style="fill: var(--color159, #8d5a1f)" d="M17.81 25.111c0.030 0.089 0.094 0.132 0.19 0.127 0.167 0.105 0.336 0.211 0.508 0.317 0.064 0.075 0.149 0.117 0.254 0.127 0 0.042 0.021 0.064 0.064 0.064 0.234 0.286 0.53 0.487 0.889 0.603-0.051 0.020-0.094 0.051-0.127 0.095 0.174 0.174 0.322 0.364 0.444 0.571-0.021 0-0.042 0-0.064 0-0.888-0.148-1.735-0.423-2.54-0.825-0.059-0.094-0.144-0.157-0.254-0.19 0.044-0.081 0.097-0.081 0.159 0 0.060-0.048 0.092-0.112 0.095-0.19-0.094-0.212-0.072-0.413 0.064-0.603-0.016-0.084-0.059-0.148-0.127-0.19 0.154-0.009 0.302 0.023 0.444 0.095z"></path>
<path fill="#b0813d" style="fill: var(--color160, #b0813d)" d="M20.667 26.825c-0.019 0.142 0.002 0.269 0.064 0.381-0.641 0.309-1.318 0.52-2.032 0.635 0.071-0.103 0.156-0.199 0.254-0.286-0.058-0.018-0.1-0.049-0.127-0.095 0.348-0.125 0.708-0.241 1.079-0.349 0.035-0.024 0.056-0.056 0.064-0.095 0.021 0 0.042 0 0.064 0 0.223-0.027 0.434-0.090 0.635-0.19z"></path>
<path fill="#cca65c" style="fill: var(--color161, #cca65c)" d="M12.222 27.206c0.451 0.129 0.895 0.256 1.333 0.381-0.107 0.025-0.212 0.057-0.317 0.095 0.063 0.021 0.127 0.042 0.19 0.064-0.070 0.049-0.070 0.102 0 0.159-0.505-0.079-0.992-0.206-1.46-0.381 0.262-0.014 0.304-0.109 0.127-0.286 0.038-0.029 0.080-0.040 0.127-0.032z"></path>
<path fill="#e1ba6c" style="fill: var(--color162, #e1ba6c)" d="M13.556 27.587c0.944 0.153 1.897 0.217 2.857 0.19-0.306 0.052-0.623 0.084-0.952 0.095 0.042 0.021 0.085 0.042 0.127 0.064-0.085 0.042-0.085 0.085 0 0.127-0.148 0.021-0.296 0.042-0.444 0.064 0.465 0.032 0.931 0.042 1.397 0.032-1.052 0.121-2.089 0.036-3.111-0.254-0.070-0.057-0.070-0.11 0-0.159-0.063-0.021-0.127-0.042-0.19-0.064 0.105-0.039 0.211-0.070 0.317-0.095z"></path>
<path fill="#ca9d51" style="fill: var(--color163, #ca9d51)" d="M18.825 27.46c0.027 0.046 0.069 0.078 0.127 0.095-0.098 0.087-0.183 0.182-0.254 0.286-0.147 0.1-0.316 0.152-0.508 0.159-0.547 0.092-1.097 0.145-1.651 0.159-0.466 0.011-0.932 0-1.397-0.032 0.148-0.021 0.296-0.042 0.444-0.064-0.085-0.042-0.085-0.085 0-0.127-0.042-0.021-0.085-0.042-0.127-0.064 0.329-0.011 0.647-0.043 0.952-0.095 0.812-0.050 1.616-0.156 2.413-0.317z"></path>
</symbol>
</defs>
</svg>
